<svg width="38" height="48" viewBox="0 0 38 48" fill="none" xmlns="http://www.w3.org/2000/svg">
<path d="M6.5 19.2656H24.8282V22.1485H6.5V19.2656ZM6.5 25.0313H15.6641V27.9141H6.5V25.0313ZM6.5 39.4454H12.6094V42.3282H6.5V39.4454Z" fill="#FF8546"/>
<path d="M22.6429 46.5H1.5V1.5H20.881M20.881 1.5V13.6154H33.2143M20.881 1.5L33.2143 13.6154M33.2143 13.6154V22.2692" stroke="#FF8546" stroke-width="3" stroke-linejoin="round"/>
<path d="M28 25C32.9707 25 37 29.0293 37 34V34.001C36.9944 38.9684 32.9684 42.9944 28.001 43H28C23.0293 43 19 38.9707 19 34C19 29.0293 23.0293 25 28 25ZM27.999 26.8496C27.0604 26.8497 26.1308 27.0353 25.2637 27.3945C24.3963 27.7539 23.6082 28.2805 22.9443 28.9443C22.2805 29.6082 21.7539 30.3963 21.3945 31.2637C21.0352 32.1311 20.8496 33.061 20.8496 34C20.8496 34.939 21.0352 35.8689 21.3945 36.7363C21.7539 37.6037 22.2805 38.3918 22.9443 39.0557C23.6082 39.7195 24.3963 40.2462 25.2637 40.6055C26.1311 40.9648 27.061 41.1504 28 41.1504C29.8963 41.1504 31.7148 40.3966 33.0557 39.0557C34.3963 37.715 35.1501 35.8969 35.1504 34.001L35.1406 33.6465C35.0512 31.8797 34.3105 30.2031 33.0537 28.9463C31.7132 27.6058 29.8948 26.8517 27.999 26.8496ZM28.0918 28.8291C28.273 28.8472 28.445 28.9188 28.5859 29.0342L28.6543 29.0957L28.7158 29.1641C28.8505 29.3286 28.9248 29.5355 28.9248 29.75V31.4492C28.9248 32.6189 29.5102 33.7053 30.4736 34.3506L30.6709 34.4736L30.6719 34.4746C30.8573 34.5822 30.9985 34.7503 31.0732 34.9492L31.1016 35.0361L31.1211 35.126C31.155 35.3343 31.1154 35.5486 31.0098 35.7334L31.0107 35.7344C30.9505 35.8405 30.869 35.9341 30.7725 36.0088C30.676 36.0833 30.565 36.1364 30.4473 36.168L30.4482 36.1689C30.3304 36.2006 30.2069 36.2087 30.0859 36.1924C29.9659 36.1762 29.8507 36.136 29.7461 36.0752V36.0762L27.5371 34.8008C27.3968 34.7197 27.2803 34.6032 27.1992 34.4629C27.118 34.3223 27.0752 34.1624 27.0752 34V29.75C27.0752 29.5047 27.1722 29.2692 27.3457 29.0957C27.5192 28.9222 27.7547 28.8252 28 28.8252L28.0918 28.8291Z" fill="#FF8546" stroke="#FF8546"/>
</svg>
