<svg width="31" height="43" viewBox="0 0 31 43" fill="none" xmlns="http://www.w3.org/2000/svg">
<g filter="url(#filter0_d_260_830)">
<path d="M19.9577 30.2161C18.8366 30.5114 17.9784 31.4752 17.9784 32.6346C17.9784 33.9232 16.9338 34.9678 15.6452 34.9678H15.3049C14.1305 34.9678 13.1784 34.0157 13.1784 32.8413C13.1784 31.7058 12.2838 30.7834 11.1567 30.6455C9.12182 30.3965 7.30892 29.9038 5.65359 29.0714C4.18014 28.3304 4.18589 26.3582 5.46232 25.3138C6.42848 24.5233 7.80804 24.5603 8.9407 25.0851C10.7079 25.904 12.7932 26.204 15 26.204C18.756 26.204 20.772 25.0426 20.772 22.904C20.772 21.9675 20.4528 21.1803 19.764 20.6549C19.1232 20.1682 18.3912 19.9045 16.8792 19.7184L12.9384 19.2685C10.1448 18.9312 8.0856 18.2196 6.6168 17.0563C5.0616 15.7824 4.2816 14.0587 4.2816 11.8077C4.2816 8.08711 6.91144 5.23822 11.4273 4.16994C12.4156 3.93613 13.1784 3.09561 13.1784 2.08C13.1784 0.968598 14.0794 0.067627 15.1908 0.067627H16.0262C17.1044 0.067627 17.9784 0.941663 17.9784 2.01984C17.9784 3.0341 18.758 3.86632 19.7575 4.03848C21.1145 4.2722 22.3453 4.64038 23.4845 5.16425C24.9597 5.84271 24.9751 7.79143 23.7129 8.81297C22.7951 9.55576 21.4972 9.52481 20.4112 9.06142C18.7798 8.36529 17.0331 8.2459 15.456 8.2459C12.0672 8.2459 10.4184 9.78151 10.4184 11.6196C10.4184 12.2943 10.6944 13.0078 11.3808 13.5313C12.0216 14.0199 13.0752 14.431 14.4048 14.5803L18.2496 15.0301C21.228 15.3675 23.1048 16.0422 24.48 17.0912C26.2224 18.4406 27 20.3912 27 22.7527C27 26.5455 24.1574 29.1102 19.9577 30.2161Z" fill="white"/>
</g>
<defs>
<filter id="filter0_d_260_830" x="0.281738" y="0.067627" width="30.7183" height="42.9001" filterUnits="userSpaceOnUse" color-interpolation-filters="sRGB">
<feFlood flood-opacity="0" result="BackgroundImageFix"/>
<feColorMatrix in="SourceAlpha" type="matrix" values="0 0 0 0 0 0 0 0 0 0 0 0 0 0 0 0 0 0 127 0" result="hardAlpha"/>
<feOffset dy="4"/>
<feGaussianBlur stdDeviation="2"/>
<feComposite in2="hardAlpha" operator="out"/>
<feColorMatrix type="matrix" values="0 0 0 0 0 0 0 0 0 0 0 0 0 0 0 0 0 0 0.25 0"/>
<feBlend mode="normal" in2="BackgroundImageFix" result="effect1_dropShadow_260_830"/>
<feBlend mode="normal" in="SourceGraphic" in2="effect1_dropShadow_260_830" result="shape"/>
</filter>
</defs>
</svg>
