<svg width="24" height="35" viewBox="0 0 24 35" fill="none" xmlns="http://www.w3.org/2000/svg">
<g filter="url(#filter0_d_279_356)">
<path d="M16.9577 30.1485C15.8366 30.4437 14.9784 31.4076 14.9784 32.567C14.9784 33.8556 13.9338 34.9002 12.6452 34.9002H12.3049C11.1305 34.9002 10.1784 33.9481 10.1784 32.7737C10.1784 31.6382 9.2838 30.7158 8.15674 30.5779C6.12182 30.3289 4.30892 29.8361 2.65359 29.0037C1.18014 28.2628 1.18589 26.2906 2.46232 25.2462C3.42848 24.4557 4.80804 24.4927 5.9407 25.0175C7.70795 25.8364 9.79316 26.1364 12 26.1364C15.756 26.1364 17.772 24.975 17.772 22.8363C17.772 21.8999 17.4528 21.1127 16.764 20.5872C16.1232 20.1006 15.3912 19.8369 13.8792 19.6507L9.9384 19.2009C7.1448 18.8635 5.0856 18.152 3.6168 16.9886C2.0616 15.7148 1.2816 13.9911 1.2816 11.74C1.2816 8.01948 3.91144 5.17059 8.42726 4.10231C9.41559 3.8685 10.1784 3.02798 10.1784 2.01238C10.1784 0.900971 11.0794 0 12.1908 0H13.0262C14.1044 0 14.9784 0.874036 14.9784 1.95221C14.9784 2.96647 15.758 3.7987 16.7575 3.97085C18.1145 4.20457 19.3453 4.57276 20.4845 5.09663C21.9597 5.77508 21.9751 7.7238 20.7129 8.74534C19.7951 9.48814 18.4972 9.45718 17.4112 8.99379C15.7798 8.29767 14.0331 8.17827 12.456 8.17827C9.0672 8.17827 7.4184 9.71388 7.4184 11.552C7.4184 12.2267 7.6944 12.9402 8.3808 13.4637C9.0216 13.9523 10.0752 14.3634 11.4048 14.5127L15.2496 14.9625C18.228 15.2998 20.1048 15.9746 21.48 17.0235C23.2224 18.373 24 20.3235 24 22.6851C24 26.4779 21.1574 29.0426 16.9577 30.1485Z" fill="white"/>
</g>
<defs>
<filter id="filter0_d_279_356" x="-2.71875" y="0" width="30.7188" height="42.9001" filterUnits="userSpaceOnUse" color-interpolation-filters="sRGB">
<feFlood flood-opacity="0" result="BackgroundImageFix"/>
<feColorMatrix in="SourceAlpha" type="matrix" values="0 0 0 0 0 0 0 0 0 0 0 0 0 0 0 0 0 0 127 0" result="hardAlpha"/>
<feOffset dy="4"/>
<feGaussianBlur stdDeviation="2"/>
<feComposite in2="hardAlpha" operator="out"/>
<feColorMatrix type="matrix" values="0 0 0 0 0 0 0 0 0 0 0 0 0 0 0 0 0 0 0.25 0"/>
<feBlend mode="normal" in2="BackgroundImageFix" result="effect1_dropShadow_279_356"/>
<feBlend mode="normal" in="SourceGraphic" in2="effect1_dropShadow_279_356" result="shape"/>
</filter>
</defs>
</svg>
