<svg width="30" height="30" viewBox="0 0 30 30" fill="none" xmlns="http://www.w3.org/2000/svg">
<g filter="url(#filter0_d_279_363)">
<path d="M26.25 3H21.75V0.75C21.75 0.551088 21.671 0.360322 21.5303 0.21967C21.3897 0.0790178 21.1989 0 21 0C20.8011 0 20.6103 0.0790178 20.4697 0.21967C20.329 0.360322 20.25 0.551088 20.25 0.75V3H9.75V0.75C9.75 0.551088 9.67098 0.360322 9.53033 0.21967C9.38968 0.0790178 9.19891 0 9 0C8.80109 0 8.61032 0.0790178 8.46967 0.21967C8.32902 0.360322 8.25 0.551088 8.25 0.75V3H3.75C2.7558 3.00119 1.80267 3.39666 1.09966 4.09966C0.396661 4.80267 0.00119089 5.7558 0 6.75V26.25C0.00119089 27.2442 0.396661 28.1973 1.09966 28.9003C1.80267 29.6033 2.7558 29.9988 3.75 30H26.25C27.2446 30 28.1984 29.6049 28.9016 28.9016C29.6049 28.1984 30 27.2446 30 26.25V6.75C30 5.75544 29.6049 4.80161 28.9016 4.09835C28.1984 3.39509 27.2446 3 26.25 3ZM28.5 26.25C28.5 26.8467 28.2629 27.419 27.841 27.841C27.419 28.2629 26.8467 28.5 26.25 28.5H3.75C3.15326 28.5 2.58097 28.2629 2.15901 27.841C1.73705 27.419 1.5 26.8467 1.5 26.25V13.5H28.5V26.25ZM28.5 12H1.5V6.75C1.5 5.508 2.505 4.5 3.75 4.5H8.25V6.75C8.25 6.94891 8.32902 7.13968 8.46967 7.28033C8.61032 7.42098 8.80109 7.5 9 7.5C9.19891 7.5 9.38968 7.42098 9.53033 7.28033C9.67098 7.13968 9.75 6.94891 9.75 6.75V4.5H20.25V6.75C20.25 6.94891 20.329 7.13968 20.4697 7.28033C20.6103 7.42098 20.8011 7.5 21 7.5C21.1989 7.5 21.3897 7.42098 21.5303 7.28033C21.671 7.13968 21.75 6.94891 21.75 6.75V4.5H26.25C26.8467 4.5 27.419 4.73705 27.841 5.15901C28.2629 5.58097 28.5 6.15326 28.5 6.75V12Z" fill="white"/>
<path d="M21 -0.5C21.3315 -0.5 21.6494 -0.36821 21.8838 -0.133789C22.1182 0.100631 22.25 0.418479 22.25 0.75V2.5H26.25C27.3772 2.5 28.4579 2.94809 29.2549 3.74512C30.0519 4.54215 30.5 5.62283 30.5 6.75V26.25C30.5 27.3772 30.0519 28.4579 29.2549 29.2549C28.4579 30.0519 27.3772 30.5 26.25 30.5H3.74902C2.62256 30.4986 1.54263 30.0504 0.746094 29.2539C-0.0504422 28.4574 -0.498551 27.3774 -0.5 26.251V6.74902L-0.494141 6.53906C-0.44094 5.4891 -0.000807064 4.493 0.746094 3.74609C1.54263 2.94956 2.62256 2.50145 3.74902 2.5H7.75V0.75C7.75 0.418479 7.88179 0.100631 8.11621 -0.133789C8.35063 -0.36821 8.66848 -0.5 9 -0.5C9.33152 -0.5 9.64937 -0.368209 9.88379 -0.133789C10.1182 0.100633 10.25 0.418481 10.25 0.75V2.5H19.75V0.75C19.75 0.418479 19.8818 0.100631 20.1162 -0.133789C20.3506 -0.36821 20.6685 -0.5 21 -0.5ZM2 26.25C2 26.7141 2.18451 27.1591 2.5127 27.4873C2.84088 27.8155 3.28587 28 3.75 28H26.25C26.7141 28 27.1591 27.8155 27.4873 27.4873C27.8155 27.1591 28 26.7141 28 26.25V14H2V26.25ZM3.75 5C2.78158 5 2 5.78371 2 6.75V11.5H28V6.75C28 6.28587 27.8155 5.84088 27.4873 5.5127C27.1591 5.18451 26.7141 5 26.25 5H22.25V6.75C22.25 7.08152 22.1182 7.39937 21.8838 7.63379C21.6494 7.86821 21.3315 8 21 8C20.6685 8 20.3506 7.86821 20.1162 7.63379C19.8818 7.39937 19.75 7.08152 19.75 6.75V5H10.25V6.75C10.25 7.08152 10.1182 7.39937 9.88379 7.63379C9.64937 7.86821 9.33152 8 9 8C8.66848 8 8.35063 7.86821 8.11621 7.63379C7.88179 7.39937 7.75 7.08152 7.75 6.75V5H3.75Z" stroke="white"/>
</g>
<defs>
<filter id="filter0_d_279_363" x="-5" y="-1" width="40" height="40" filterUnits="userSpaceOnUse" color-interpolation-filters="sRGB">
<feFlood flood-opacity="0" result="BackgroundImageFix"/>
<feColorMatrix in="SourceAlpha" type="matrix" values="0 0 0 0 0 0 0 0 0 0 0 0 0 0 0 0 0 0 127 0" result="hardAlpha"/>
<feOffset dy="4"/>
<feGaussianBlur stdDeviation="2"/>
<feComposite in2="hardAlpha" operator="out"/>
<feColorMatrix type="matrix" values="0 0 0 0 0 0 0 0 0 0 0 0 0 0 0 0 0 0 0.25 0"/>
<feBlend mode="normal" in2="BackgroundImageFix" result="effect1_dropShadow_279_363"/>
<feBlend mode="normal" in="SourceGraphic" in2="effect1_dropShadow_279_363" result="shape"/>
</filter>
</defs>
</svg>
