<svg width="15" height="21" viewBox="0 0 15 21" fill="none" xmlns="http://www.w3.org/2000/svg">
<path d="M7.50005 0.755039C3.78526 0.755039 0.755039 3.78526 0.755039 7.50005C0.755039 12.1108 6.79535 18.8961 7.04703 19.178C7.28864 19.4498 7.71145 19.4498 7.95307 19.178C8.21481 18.8961 14.2451 12.1108 14.2451 7.50005C14.2451 3.78526 11.2148 0.755039 7.50005 0.755039Z" stroke="#1B1B1B" stroke-width="1.5" stroke-linecap="round" stroke-linejoin="round"/>
<path d="M7.88789 9.85097C9.18925 9.64382 10.0763 8.42092 9.86915 7.11955C9.662 5.81818 8.43912 4.93114 7.13775 5.13829C5.83638 5.34543 4.94934 6.56832 5.15649 7.86969C5.36363 9.17105 6.58652 10.0581 7.88789 9.85097Z" stroke="#1B1B1B" stroke-width="1.5" stroke-linecap="round" stroke-linejoin="round"/>
</svg>
