<svg width="41" height="51" viewBox="0 0 41 51" fill="none" xmlns="http://www.w3.org/2000/svg">
<mask id="path-1-outside-1_279_408" maskUnits="userSpaceOnUse" x="0" y="4.10718" width="37" height="47" fill="black">
<rect fill="white" y="4.10718" width="37" height="47"/>
<path d="M26.1726 48H5.57432C4.89157 48 4.23678 47.7607 3.754 47.3347C3.27122 46.9087 3 46.331 3 45.7285V9.37864C3 8.77621 3.27122 8.19845 3.754 7.77247C4.23678 7.34649 4.89157 7.10718 5.57432 7.10718H31.3213C31.6594 7.10703 31.9943 7.16568 32.3068 7.27977C32.6193 7.39386 32.9032 7.56115 33.1424 7.77209C33.3816 7.98303 33.5713 8.23348 33.7007 8.50914C33.8302 8.78479 33.8968 9.08025 33.8968 9.37864V13.9226"/>
</mask>
<path d="M26.1726 51C27.8295 51 29.1726 49.6569 29.1726 48C29.1726 46.3432 27.8295 45 26.1726 45V48V51ZM5.57432 48V45V48ZM3 9.37864H6H3ZM31.3213 7.10718V10.1072L31.3225 10.1072L31.3213 7.10718ZM33.8968 9.37864L30.8968 9.37864V9.37864H33.8968ZM30.8968 13.9226C30.8968 15.5795 32.24 16.9226 33.8968 16.9226C35.5537 16.9226 36.8968 15.5795 36.8968 13.9226H33.8968H30.8968ZM26.1726 48V45H5.57432V48V51H26.1726V48ZM5.57432 48V45C5.58172 45 5.59606 45.001 5.61899 45.0094C5.64171 45.0177 5.68541 45.038 5.73887 45.0852L3.754 47.3347L1.76914 49.5842C2.83505 50.5247 4.20873 51 5.57432 51V48ZM3.754 47.3347L5.73887 45.0852C5.85135 45.1844 6 45.4055 6 45.7285H3H0C0 47.2564 0.691101 48.633 1.76914 49.5842L3.754 47.3347ZM3 45.7285H6V9.37864H3H0V45.7285H3ZM3 9.37864H6C6 9.70167 5.85134 9.92274 5.73887 10.022L3.754 7.77247L1.76914 5.52296C0.691102 6.47417 0 7.85075 0 9.37864H3ZM3.754 7.77247L5.73887 10.022C5.68541 10.0692 5.64171 10.0895 5.61899 10.0978C5.59607 10.1062 5.58172 10.1072 5.57432 10.1072V7.10718V4.10718C4.20873 4.10718 2.83505 4.58245 1.76914 5.52296L3.754 7.77247ZM5.57432 7.10718V10.1072H31.3213V7.10718V4.10718H5.57432V7.10718ZM31.3213 7.10718L31.3225 10.1072C31.318 10.1072 31.3127 10.1068 31.3062 10.1057C31.2996 10.1045 31.2902 10.1023 31.2779 10.0978L32.3068 7.27977L33.3357 4.46173C32.6876 4.2251 32.0036 4.10689 31.32 4.10718L31.3213 7.10718ZM32.3068 7.27977L31.2779 10.0978C31.2546 10.0893 31.2112 10.0689 31.1581 10.0221L33.1424 7.77209L35.1267 5.5221C34.5952 5.05336 33.9839 4.69839 33.3357 4.46173L32.3068 7.27977ZM33.1424 7.77209L31.1581 10.0221C31.1042 9.9746 31.0385 9.89769 30.9853 9.78433L33.7007 8.50914L36.4162 7.23394C36.1041 6.56927 35.6589 5.99146 35.1267 5.5221L33.1424 7.77209ZM33.7007 8.50914L30.9853 9.78433C30.9313 9.66947 30.8968 9.53034 30.8968 9.37864L33.8968 9.37864L36.8968 9.37864C36.8968 8.63017 36.7291 7.90012 36.4162 7.23394L33.7007 8.50914ZM33.8968 9.37864H30.8968V13.9226H33.8968H36.8968V9.37864H33.8968Z" fill="#FF8546" mask="url(#path-1-outside-1_279_408)"/>
<path d="M23.7188 6.60938C24.2618 6.60938 24.7621 6.31566 25.0273 5.8418C25.2926 5.36793 25.281 4.78807 24.9971 4.3252L23.7031 2.21582C23.4304 1.77126 22.9464 1.50005 22.4248 1.5H14.6543C14.1332 1.50016 13.6498 1.77087 13.377 2.21484L12.0811 4.32422C11.7968 4.78704 11.7847 5.36777 12.0498 5.8418C12.315 6.31584 12.8162 6.60938 13.3594 6.60938H23.7188Z" stroke="#FF8546" stroke-width="3" stroke-linecap="round" stroke-linejoin="round"/>
<path d="M7.78125 13.5469H26.1095V16.4298H7.78125V13.5469ZM7.78125 19.3126H26.1095V22.1954H7.78125V19.3126ZM7.78125 25.0782H16.9454V27.9611H7.78125V25.0782ZM7.78125 39.4924H13.8907V42.3752H7.78125V39.4924Z" fill="#FF8546"/>
<path d="M36.1674 40.5775C35.4792 40.7671 34.952 41.3638 34.952 42.0776C34.952 42.8698 34.3098 43.5157 33.5176 43.5157H33.3952C32.6706 43.5157 32.0832 42.9284 32.0832 42.2038C32.0832 41.504 31.5323 40.9359 30.8383 40.8464C29.6215 40.6894 28.5378 40.3808 27.5483 39.8609C26.6771 39.4033 26.6826 38.23 27.4346 37.5953C28.0293 37.0934 28.8935 37.117 29.5987 37.4459C30.6446 37.9336 31.873 38.1129 33.1719 38.1129C35.4167 38.1129 36.6216 37.3969 36.6216 36.0785C36.6216 35.5011 36.4308 35.0158 36.0192 34.6919C35.6362 34.3919 35.1987 34.2293 34.295 34.1146L31.9398 33.8372C30.2702 33.6293 29.0395 33.1906 28.1616 32.4734C27.2321 31.6881 26.766 30.6254 26.766 29.2377C26.766 26.9523 28.3264 25.2003 31.0074 24.5362C31.6145 24.3859 32.0832 23.8683 32.0832 23.2429C32.0832 22.5565 32.6397 22 33.3261 22H33.7469C34.4125 22 34.952 22.5395 34.952 23.2051C34.952 23.8299 35.4316 24.3425 36.0465 24.4536C36.8594 24.6005 37.5963 24.8312 38.2783 25.159C39.1525 25.5792 39.1595 26.7401 38.415 27.3616C37.8494 27.8337 37.036 27.8136 36.3585 27.524C35.3971 27.1131 34.3717 27.0419 33.4444 27.0419C31.4191 27.0419 30.4337 27.9885 30.4337 29.1217C30.4337 29.5377 30.5986 29.9776 31.0089 30.3003C31.3918 30.6015 32.0215 30.8549 32.8162 30.947L35.1141 31.2243C36.8941 31.4323 38.0158 31.8482 38.8377 32.4949C39.8791 33.3268 40.3438 34.5293 40.3438 35.9852C40.3438 38.3134 38.6595 39.8909 36.1674 40.5775Z" fill="#FF8546"/>
</svg>
