<svg width="31" height="27" viewBox="0 0 31 27" fill="none" xmlns="http://www.w3.org/2000/svg">
<path d="M25.8333 24.6579L28.9979 26.5825L28.1583 22.9529L31 20.5246L27.2671 20.2017L25.8333 16.7917L24.3738 20.2017L20.6667 20.5246L23.4825 22.9529L22.6042 26.5825L25.8333 24.6579ZM18.1867 23.25H2.58333C1.90576 23.2262 1.2624 22.9464 0.782989 22.467C0.303577 21.9876 0.0237737 21.3442 0 20.6667L0 2.58333C0.0516667 1.17542 1.17542 0.0516667 2.58333 0H28.4167C29.8246 0.0516667 30.9483 1.17542 31 2.58333V16.1846C30.2508 15.5 29.3854 14.9963 28.4167 14.6475V2.58333H2.58333V20.6667H18.1867C18.1221 21.0929 18.0833 21.5192 18.0833 21.9583C18.0833 22.3975 18.1221 22.8367 18.1867 23.25ZM18.0833 18.0833H5.16667V16.4688C5.16667 14.3246 9.48083 13.2396 11.625 13.2396C13.7692 13.2396 18.0833 14.3246 18.0833 16.4688V18.0833ZM18.0833 10.3333H23.25V11.625H18.0833V10.3333ZM11.625 5.16667C9.85542 5.16667 8.39583 6.62625 8.39583 8.39583C8.39583 10.1654 9.85542 11.625 11.625 11.625C13.3946 11.625 14.8542 10.1654 14.8542 8.39583C14.8542 6.62625 13.3946 5.16667 11.625 5.16667ZM18.0833 7.75H25.8333V9.04167H18.0833V7.75ZM18.0833 5.16667H25.8333V6.45833H18.0833V5.16667Z" fill="white"/>
</svg>
