<svg width="60" height="53" viewBox="0 0 60 53" fill="none" xmlns="http://www.w3.org/2000/svg">
<path d="M52.5 5.3H43.5V1.325C43.5 0.973588 43.342 0.63657 43.0607 0.388084C42.7794 0.139598 42.3978 0 42 0C41.6022 0 41.2206 0.139598 40.9393 0.388084C40.658 0.63657 40.5 0.973588 40.5 1.325V5.3H19.5V1.325C19.5 0.973588 19.342 0.63657 19.0607 0.388084C18.7794 0.139598 18.3978 0 18 0C17.6022 0 17.2206 0.139598 16.9393 0.388084C16.658 0.63657 16.5 0.973588 16.5 1.325V5.3H7.5C5.51161 5.3021 3.60534 6.00077 2.19933 7.24274C0.793323 8.48471 0.00238179 10.1686 0 11.925V46.375C0.00238179 48.1314 0.793323 49.8153 2.19933 51.0573C3.60534 52.2992 5.51161 52.9979 7.5 53H52.5C54.4891 53 56.3968 52.302 57.8033 51.0596C59.2098 49.8172 60 48.1321 60 46.375V11.925C60 10.1679 59.2098 8.48285 57.8033 7.24042C56.3968 5.99799 54.4891 5.3 52.5 5.3ZM57 46.375C57 47.4292 56.5259 48.4403 55.682 49.1857C54.8381 49.9312 53.6935 50.35 52.5 50.35H7.5C6.30653 50.35 5.16193 49.9312 4.31802 49.1857C3.47411 48.4403 3 47.4292 3 46.375V19.9568H57V46.375ZM57 17.3068H3V11.925C3 9.7308 5.01 7.95 7.5 7.95H16.5V11.925C16.5 12.2764 16.658 12.6134 16.9393 12.8619C17.2206 13.1104 17.6022 13.25 18 13.25C18.3978 13.25 18.7794 13.1104 19.0607 12.8619C19.342 12.6134 19.5 12.2764 19.5 11.925V7.95H40.5V11.925C40.5 12.2764 40.658 12.6134 40.9393 12.8619C41.2206 13.1104 41.6022 13.25 42 13.25C42.3978 13.25 42.7794 13.1104 43.0607 12.8619C43.342 12.6134 43.5 12.2764 43.5 11.925V7.95H52.5C53.6935 7.95 54.8381 8.36879 55.682 9.11425C56.5259 9.85971 57 10.8708 57 11.925V17.3068Z" fill="#FF8546"/>
<rect x="12" y="27" width="9" height="3" fill="#FF8546"/>
<rect x="12" y="33" width="9" height="3" fill="#FF8546"/>
<rect x="12" y="39" width="9" height="3" fill="#FF8546"/>
<rect x="26" y="27" width="9" height="3" fill="#FF8546"/>
<rect x="26" y="33" width="9" height="3" fill="#FF8546"/>
<rect x="26" y="39" width="9" height="3" fill="#FF8546"/>
<rect x="40" y="27" width="9" height="3" fill="#FF8546"/>
<rect x="40" y="33" width="9" height="3" fill="#FF8546"/>
<rect x="40" y="39" width="9" height="3" fill="#FF8546"/>
</svg>
