<svg width="84" height="75" viewBox="0 0 84 75" fill="none" xmlns="http://www.w3.org/2000/svg">
<path fill-rule="evenodd" clip-rule="evenodd" d="M12.0951 5.4424C17.1907 2.94857 25.5505 0 34.6994 0C43.6573 0 51.797 2.82606 56.8656 5.28667L57.1522 5.42579C58.6805 6.18162 59.9139 6.89593 60.7818 7.47526L53.1114 18.6881C70.7945 36.7658 84.4535 74.7463 34.6994 74.7463C-15.0546 74.7463 -1.76321 37.4552 16.0736 18.6881L8.45297 7.47526C9.04061 7.09111 9.78606 6.64467 10.6748 6.17124C11.115 5.93452 11.5884 5.6895 12.0951 5.4424ZM48.1819 18.5386L54.322 9.5621C48.6117 9.97324 41.8175 11.3146 35.2767 13.2084C30.6046 14.5581 25.4135 14.3525 20.6065 13.4658C19.3951 13.2413 18.1921 12.9739 16.9997 12.6643L20.9865 18.5345C29.5311 21.5765 39.6352 21.5765 48.1819 18.5386ZM18.5882 22.0728C28.5863 25.935 40.6028 25.935 50.601 22.0686C54.7744 26.468 58.2655 31.4675 60.9583 36.9008C63.7657 42.6277 65.294 48.3525 65.0448 53.2861C64.8039 58.0474 62.931 62.1152 58.6535 65.1385C54.1953 68.2885 46.6972 70.5934 34.6973 70.5934C22.685 70.5934 15.1516 68.328 10.6519 65.2133C6.34329 62.2274 4.45163 58.2156 4.18377 53.5187C3.90345 48.639 5.3985 42.9433 8.19549 37.1769C10.8637 31.6785 14.5868 26.3856 18.5882 22.0728ZM16.2002 8.13142C17.8614 8.62562 19.5973 9.05544 21.3582 9.38145C25.8226 10.2037 30.2994 10.3242 34.1201 9.21741C38.5725 7.92033 43.1009 6.90022 47.6794 6.16293C43.8587 5.01258 39.3901 4.15292 34.6973 4.15292C27.5439 4.15292 20.8723 6.1484 16.2002 8.13142Z" fill="#FF8546"/>
<path d="M72.6296 19.0472L69.225 17.081V10.25C69.225 10.0577 69.1486 9.87331 69.0127 9.73735C68.8767 9.60138 68.6923 9.525 68.5 9.525C68.3077 9.525 68.1233 9.60138 67.9873 9.73735C67.8514 9.87331 67.775 10.0577 67.775 10.25V17.5C67.775 17.6273 67.8085 17.7523 67.8721 17.8625C67.9358 17.9727 68.0273 18.0642 68.1375 18.1278L71.9046 20.3029C71.9868 20.351 72.0777 20.3823 72.1721 20.3951C72.2665 20.4078 72.3625 20.4016 72.4545 20.3769C72.5465 20.3522 72.6327 20.3095 72.7081 20.2513C72.7834 20.193 72.8465 20.1203 72.8935 20.0375C72.9898 19.8712 73.016 19.6734 72.9665 19.4877C72.9171 19.302 72.7959 19.1435 72.6296 19.0472ZM68.5 3C60.4917 3 54 9.49165 54 17.5C54 25.5084 60.4917 32 68.5 32C76.504 31.9913 82.9913 25.504 83 17.5C83 9.49165 76.5084 3 68.5 3ZM68.5 30.55C66.7863 30.55 65.0893 30.2125 63.506 29.5566C61.9227 28.9008 60.4841 27.9395 59.2723 26.7277C58.0605 25.5159 57.0992 24.0773 56.4434 22.494C55.7875 20.9107 55.45 19.2138 55.45 17.5C55.45 15.7863 55.7875 14.0893 56.4434 12.506C57.0992 10.9227 58.0605 9.48406 59.2723 8.27226C60.4841 7.06045 61.9227 6.0992 63.506 5.44337C65.0893 4.78755 66.7863 4.45 68.5 4.45C71.9599 4.45384 75.277 5.82998 77.7235 8.2765C80.17 10.723 81.5462 14.0401 81.55 17.5C81.55 20.9611 80.1751 24.2804 77.7277 26.7277C75.2804 29.1751 71.9611 30.55 68.5 30.55Z" fill="#FF8546" stroke="#FF8546" stroke-width="2"/>
<path d="M36.8999 58.3212V62.25H33.0999V58.4997C29.8471 58.3247 27.2745 57.469 25.042 55.355L28.3062 52.31C29.9383 53.8325 32.1499 54.34 34.542 54.34C37.5155 54.34 39.1115 53.2917 39.1115 51.3615C39.1115 50.5162 38.8588 49.8057 38.3135 49.3315C37.8062 48.8922 37.2267 48.6542 36.0297 48.4862L32.9099 48.0802C30.6983 47.7757 29.0681 47.1335 27.9053 46.0835C26.6741 44.9337 26.0566 43.378 26.0566 41.3462C26.0566 37.575 28.6824 34.796 33.0999 34.1712V30.75H36.8999V34.131C39.5257 34.3847 41.5834 35.216 43.3884 36.8452L40.1983 39.7887C38.5662 38.3327 36.6092 38.1315 34.903 38.1315C32.2202 38.1315 30.9149 39.5175 30.9149 41.1765C30.9149 41.7855 31.1334 42.4295 31.6768 42.902C32.1841 43.343 33.0182 43.714 34.0708 43.8487L37.1146 44.2547C39.4725 44.5592 40.9583 45.1682 42.047 46.115C43.4264 47.333 44.042 49.0935 44.042 51.225C44.042 55.1625 41.0647 57.6335 36.8999 58.3212Z" fill="#FF8546"/>
</svg>
