<svg width="69" height="82" viewBox="0 0 69 82" fill="none" xmlns="http://www.w3.org/2000/svg">
<path d="M44.7344 59.0938C45.1778 59.0938 45.6035 59.2695 45.917 59.583C46.2305 59.8965 46.4062 60.3222 46.4062 60.7656C46.4062 61.209 46.2305 61.6347 45.917 61.9482C45.6035 62.2618 45.1778 62.4375 44.7344 62.4375H14.2656C13.8222 62.4375 13.3965 62.2618 13.083 61.9482C12.7695 61.6347 12.5938 61.209 12.5938 60.7656C12.5938 60.3222 12.7695 59.8965 13.083 59.583C13.3965 59.2695 13.8222 59.0938 14.2656 59.0938H44.7344ZM44.7344 49.7188C45.1778 49.7188 45.6035 49.8945 45.917 50.208C46.2305 50.5215 46.4062 50.9472 46.4062 51.3906C46.4062 51.834 46.2305 52.2597 45.917 52.5732C45.6035 52.8868 45.1778 53.0625 44.7344 53.0625H14.2656C13.8222 53.0625 13.3965 52.8868 13.083 52.5732C12.7695 52.2597 12.5938 51.834 12.5938 51.3906C12.5938 50.9472 12.7695 50.5215 13.083 50.208C13.3965 49.8945 13.8222 49.7188 14.2656 49.7188H44.7344ZM44.7344 40.3438C45.1778 40.3438 45.6035 40.5195 45.917 40.833C46.2305 41.1465 46.4062 41.5722 46.4062 42.0156C46.4062 42.459 46.2305 42.8847 45.917 43.1982C45.6035 43.5118 45.1778 43.6875 44.7344 43.6875H14.2656C13.8222 43.6875 13.3965 43.5118 13.083 43.1982C12.7695 42.8847 12.5938 42.459 12.5938 42.0156C12.5938 41.5722 12.7695 41.1465 13.083 40.833C13.3965 40.5195 13.8222 40.3438 14.2656 40.3438H44.7344ZM44.7344 30.9688C45.1778 30.9688 45.6035 31.1445 45.917 31.458C46.2305 31.7715 46.4062 32.1972 46.4062 32.6406C46.4062 33.084 46.2305 33.5097 45.917 33.8232C45.6035 34.1368 45.1778 34.3125 44.7344 34.3125H14.2656C13.8222 34.3125 13.3965 34.1368 13.083 33.8232C12.7695 33.5097 12.5938 33.084 12.5938 32.6406C12.5938 32.1972 12.7695 31.7715 13.083 31.458C13.3965 31.1445 13.8222 30.9688 14.2656 30.9688H44.7344ZM28.3281 21.5938C28.7715 21.5938 29.1972 21.7695 29.5107 22.083C29.8243 22.3965 30 22.8222 30 23.2656C30 23.709 29.8243 24.1347 29.5107 24.4482C29.1972 24.7618 28.7715 24.9375 28.3281 24.9375H14.2656C13.8222 24.9375 13.3965 24.7618 13.083 24.4482C12.7695 24.1347 12.5938 23.709 12.5938 23.2656C12.5938 22.8222 12.7695 22.3965 13.083 22.083C13.3965 21.7695 13.8222 21.5938 14.2656 21.5938H28.3281Z" fill="#FF8546" stroke="#FF8546"/>
<mask id="path-2-outside-1_383_243" maskUnits="userSpaceOnUse" x="0.375" y="0" width="59" height="77" fill="black">
<rect fill="white" x="0.375" width="59" height="77"/>
<path d="M37.7031 1C37.7733 1 37.8365 1.02828 37.9043 1.04004C37.9512 1.04707 37.9916 1.05137 38.0361 1.06543C38.2352 1.12155 38.4156 1.23041 38.5586 1.37988C38.5656 1.38679 38.575 1.38665 38.582 1.39355L57.332 22.4873C57.3484 22.5084 57.3459 22.5346 57.3623 22.5557C57.4644 22.6876 57.5364 22.8402 57.5732 23.0029C57.5849 23.0544 57.5988 23.1015 57.6035 23.1553C57.6059 23.1928 57.625 23.2258 57.625 23.2656V47.3174C57.0685 47.0392 56.4222 46.9288 55.7627 47.0459C55.5961 47.0755 55.4356 47.1191 55.2812 47.1738V24.4375H40.0469C38.0664 24.4375 36.5312 22.232 36.5312 20.3359V3.34375H4.89062C4.57982 3.34375 4.28129 3.46675 4.06152 3.68652C3.84175 3.90629 3.71875 4.20482 3.71875 4.51562V72.4844C3.71875 73.1406 4.23437 73.6562 4.89062 73.6562H40.0381C40.0129 73.8127 40 73.9732 40 74.1367C39.9999 74.1644 39.9592 74.9343 40.3457 75.7354L40.457 75.9668L40.4805 76H4.89062C2.95234 76 1.375 74.4227 1.375 72.4844V4.51562C1.375 2.57734 2.95234 1 4.89062 1H37.7031ZM38.875 20.3359C38.875 21.1094 39.5313 22.0938 40.0469 22.0938H53.8447L38.875 5.25391V20.3359Z"/>
</mask>
<path d="M37.7031 1C37.7733 1 37.8365 1.02828 37.9043 1.04004C37.9512 1.04707 37.9916 1.05137 38.0361 1.06543C38.2352 1.12155 38.4156 1.23041 38.5586 1.37988C38.5656 1.38679 38.575 1.38665 38.582 1.39355L57.332 22.4873C57.3484 22.5084 57.3459 22.5346 57.3623 22.5557C57.4644 22.6876 57.5364 22.8402 57.5732 23.0029C57.5849 23.0544 57.5988 23.1015 57.6035 23.1553C57.6059 23.1928 57.625 23.2258 57.625 23.2656V47.3174C57.0685 47.0392 56.4222 46.9288 55.7627 47.0459C55.5961 47.0755 55.4356 47.1191 55.2812 47.1738V24.4375H40.0469C38.0664 24.4375 36.5312 22.232 36.5312 20.3359V3.34375H4.89062C4.57982 3.34375 4.28129 3.46675 4.06152 3.68652C3.84175 3.90629 3.71875 4.20482 3.71875 4.51562V72.4844C3.71875 73.1406 4.23437 73.6562 4.89062 73.6562H40.0381C40.0129 73.8127 40 73.9732 40 74.1367C39.9999 74.1644 39.9592 74.9343 40.3457 75.7354L40.457 75.9668L40.4805 76H4.89062C2.95234 76 1.375 74.4227 1.375 72.4844V4.51562C1.375 2.57734 2.95234 1 4.89062 1H37.7031ZM38.875 20.3359C38.875 21.1094 39.5313 22.0938 40.0469 22.0938H53.8447L38.875 5.25391V20.3359Z" fill="#FF8546"/>
<path d="M37.9043 1.04004L37.7336 2.02536L37.7447 2.02729L37.756 2.02898L37.9043 1.04004ZM38.0361 1.06543L37.735 2.01901L37.7499 2.0237L37.7648 2.02793L38.0361 1.06543ZM38.5586 1.37988L37.836 2.07116L37.8458 2.08138L37.8559 2.09133L38.5586 1.37988ZM38.582 1.39355L39.3294 0.729191L39.3079 0.704932L39.2848 0.682123L38.582 1.39355ZM57.332 22.4873L58.1214 21.8734L58.1012 21.8475L58.0794 21.8229L57.332 22.4873ZM57.3623 22.5557L58.1533 21.9438L58.1517 21.9417L57.3623 22.5557ZM57.5732 23.0029L56.5979 23.2236L56.5981 23.2246L57.5732 23.0029ZM57.6035 23.1553L58.6016 23.0929L58.6008 23.0805L58.5997 23.0681L57.6035 23.1553ZM57.625 47.3174L57.1779 48.2119L58.625 48.9351V47.3174H57.625ZM55.7627 47.0459L55.5878 46.0613L55.5878 46.0613L55.7627 47.0459ZM55.2812 47.1738H54.2812V48.5896L55.6156 48.1163L55.2812 47.1738ZM55.2812 24.4375H56.2812V23.4375H55.2812V24.4375ZM36.5312 3.34375H37.5312V2.34375H36.5312V3.34375ZM4.89062 3.34375L4.89062 2.34375L4.89062 3.34375ZM40.0381 73.6562L41.0254 73.8152L41.2119 72.6562H40.0381V73.6562ZM40 74.1367L41 74.1392V74.1367H40ZM40.3457 75.7354L41.2469 75.3019L41.2463 75.3008L40.3457 75.7354ZM40.457 75.9668L39.5559 76.4003L39.592 76.4754L39.6401 76.5435L40.457 75.9668ZM40.4805 76V77H42.4104L41.2974 75.4233L40.4805 76ZM53.8447 22.0938V23.0938H56.0717L54.5921 21.4294L53.8447 22.0938ZM38.875 5.25391L39.6224 4.58952L37.875 2.62384V5.25391H38.875ZM37.7031 1V2C37.6534 2 37.6138 1.99497 37.5887 1.99074C37.5762 1.98864 37.5667 1.98663 37.5611 1.98538C37.5557 1.98416 37.5529 1.98341 37.5543 1.98379C37.5563 1.9843 37.5593 1.9851 37.5681 1.98749C37.5753 1.98942 37.5885 1.99301 37.6025 1.99664C37.6171 2.00044 37.636 2.0052 37.6575 2.01009C37.6792 2.01502 37.7048 2.02038 37.7336 2.02536L37.9043 1.04004L38.075 0.0547214C38.0972 0.0585717 38.1107 0.0623015 38.1058 0.0610032C38.1032 0.0603297 38.0999 0.059456 38.0905 0.0569187C38.0829 0.0548445 38.0694 0.0511906 38.0549 0.047435C38.0007 0.0334314 37.8682 0 37.7031 0V1ZM37.9043 1.04004L37.756 2.02898C37.7647 2.03029 37.7727 2.03145 37.779 2.03236C37.7863 2.03341 37.7898 2.0339 37.7945 2.03458C37.8029 2.03581 37.8035 2.03596 37.8013 2.03557C37.7984 2.03507 37.7901 2.03358 37.7784 2.03088C37.7664 2.02811 37.7516 2.02426 37.735 2.01901L38.0361 1.06543L38.3373 0.111847C38.2588 0.0870542 38.1907 0.0732025 38.1409 0.0646246C38.1171 0.0605247 38.0961 0.0574049 38.0823 0.0554087C38.0641 0.0527499 38.062 0.0525074 38.0526 0.0511027L37.9043 1.04004ZM38.0361 1.06543L37.7648 2.02793C37.7907 2.03521 37.8156 2.04981 37.836 2.07116L38.5586 1.37988L39.2812 0.688608C39.0156 0.411008 38.6798 0.207882 38.3074 0.102931L38.0361 1.06543ZM38.5586 1.37988L37.8559 2.09133C37.8978 2.1328 37.9403 2.16758 37.9811 2.19664C38.0216 2.22547 38.0589 2.24763 38.09 2.26435C38.1205 2.28081 38.1463 2.29268 38.1627 2.29992C38.1709 2.30359 38.1778 2.3065 38.1822 2.30833C38.1862 2.31002 38.1897 2.31147 38.1898 2.31147C38.1908 2.31189 38.1883 2.31086 38.1853 2.3096C38.1819 2.3082 38.1761 2.30573 38.1688 2.30251C38.1545 2.29617 38.1307 2.28526 38.1021 2.26986C38.0731 2.25421 38.0377 2.23322 37.9991 2.20574C37.9602 2.17801 37.9195 2.14474 37.8793 2.10499L38.582 1.39355L39.2848 0.682123C39.2428 0.640649 39.2003 0.605866 39.1595 0.576802C39.1191 0.547978 39.0817 0.525812 39.0507 0.509097C39.0201 0.492632 38.9943 0.48076 38.978 0.473517C38.9697 0.469846 38.9628 0.466941 38.9585 0.46511C38.9544 0.46342 38.9509 0.461967 38.9509 0.461963C38.9499 0.461544 38.9524 0.462573 38.9554 0.463833C38.9587 0.465234 38.9645 0.467701 38.9718 0.470922C38.9862 0.477262 39.0099 0.488178 39.0385 0.503576C39.0675 0.519223 39.1029 0.540212 39.1415 0.567694C39.1804 0.595415 39.2211 0.628692 39.2613 0.668439L38.5586 1.37988ZM38.582 1.39355L37.8346 2.05792L56.5846 23.1517L57.332 22.4873L58.0794 21.8229L39.3294 0.729191L38.582 1.39355ZM57.332 22.4873L56.5427 23.1012C56.476 23.0156 56.4369 22.9346 56.4143 22.8789C56.4034 22.852 56.3962 22.8302 56.3922 22.8179C56.3887 22.8071 56.3862 22.7981 56.3876 22.803C56.3879 22.804 56.3922 22.8189 56.3976 22.8356C56.4034 22.8537 56.4127 22.8813 56.4259 22.914C56.4531 22.9813 56.4981 23.0734 56.573 23.1696L57.3623 22.5557L58.1517 21.9417C58.2183 22.0274 58.2574 22.1083 58.28 22.1641C58.2909 22.191 58.2982 22.2128 58.3021 22.225C58.3056 22.2359 58.3082 22.2449 58.3067 22.24C58.3064 22.239 58.3021 22.2241 58.2968 22.2074C58.2909 22.1892 58.2816 22.1616 58.2684 22.129C58.2412 22.0617 58.1962 21.9696 58.1214 21.8734L57.332 22.4873ZM57.3623 22.5557L56.5713 23.1675C56.5845 23.1845 56.5934 23.2036 56.5979 23.2236L57.5732 23.0029L58.5486 22.7823C58.4795 22.4768 58.3443 22.1908 58.1533 21.9438L57.3623 22.5557ZM57.5732 23.0029L56.5981 23.2246C56.6006 23.2356 56.603 23.2458 56.605 23.2542C56.607 23.2623 56.6089 23.2704 56.6102 23.2758C56.6117 23.2819 56.6126 23.2858 56.6134 23.2892C56.6142 23.2924 56.6145 23.2939 56.6146 23.2944C56.6151 23.2965 56.6102 23.2752 56.6073 23.2424L57.6035 23.1553L58.5997 23.0681C58.5921 22.9815 58.5779 22.9098 58.5674 22.8621C58.5623 22.8391 58.5572 22.8181 58.5543 22.806C58.5507 22.7912 58.5495 22.7861 58.5484 22.7813L57.5732 23.0029ZM57.6035 23.1553L56.6055 23.2177C56.6107 23.3017 56.6245 23.3699 56.6347 23.4127C56.6397 23.4341 56.6445 23.4519 56.6476 23.4629C56.6491 23.4685 56.6505 23.4733 56.6514 23.4764C56.6527 23.481 56.6524 23.4802 56.653 23.4822C56.6536 23.4843 56.6521 23.4792 56.6501 23.4713C56.648 23.4629 56.6445 23.4486 56.6409 23.4304C56.6336 23.3933 56.625 23.3362 56.625 23.2656H57.625H58.625C58.625 23.1751 58.614 23.099 58.6031 23.0433C58.5928 22.9911 58.5806 22.9486 58.5773 22.9369C58.5767 22.9351 58.5762 22.9334 58.5759 22.9322C58.5755 22.9308 58.5753 22.9301 58.5751 22.9293C58.5747 22.9279 58.5748 22.9283 58.5751 22.9294C58.5757 22.9315 58.5781 22.9403 58.5811 22.9528C58.5869 22.9776 58.5975 23.0276 58.6016 23.0929L57.6035 23.1553ZM57.625 23.2656H56.625V47.3174H57.625H58.625V23.2656H57.625ZM57.625 47.3174L58.0721 46.4229C57.3325 46.0533 56.4689 45.9048 55.5878 46.0613L55.7627 47.0459L55.9376 48.0305C56.3756 47.9527 56.8045 48.0252 57.1779 48.2119L57.625 47.3174ZM55.7627 47.0459L55.5878 46.0613C55.3635 46.1012 55.1496 46.1595 54.9469 46.2314L55.2812 47.1738L55.6156 48.1163C55.7215 48.0787 55.8288 48.0498 55.9376 48.0305L55.7627 47.0459ZM55.2812 47.1738H56.2812V24.4375H55.2812H54.2812V47.1738H55.2812ZM55.2812 24.4375V23.4375H40.0469V24.4375V25.4375H55.2812V24.4375ZM40.0469 24.4375V23.4375C39.4465 23.4375 38.8299 23.1007 38.3269 22.4727C37.823 21.8434 37.5312 21.0344 37.5312 20.3359H36.5312H35.5312C35.5312 21.5336 36.0071 22.7754 36.7658 23.7228C37.5255 24.6715 38.6668 25.4375 40.0469 25.4375V24.4375ZM36.5312 20.3359H37.5312V3.34375H36.5312H35.5312V20.3359H36.5312ZM36.5312 3.34375V2.34375H4.89062V3.34375V4.34375H36.5312V3.34375ZM4.89062 3.34375L4.89062 2.34375C4.31603 2.34375 3.76273 2.57111 3.35442 2.97942L4.06152 3.68652L4.76863 4.39363C4.79986 4.3624 4.84361 4.34375 4.89063 4.34375L4.89062 3.34375ZM4.06152 3.68652L3.35442 2.97942C2.94611 3.38773 2.71875 3.94103 2.71875 4.51562H3.71875H4.71875C4.71875 4.46861 4.7374 4.42486 4.76863 4.39363L4.06152 3.68652ZM3.71875 4.51562H2.71875V72.4844H3.71875H4.71875V4.51562H3.71875ZM3.71875 72.4844H2.71875C2.71875 73.6929 3.68209 74.6562 4.89062 74.6562V73.6562V72.6562C4.83073 72.6562 4.79124 72.6348 4.7657 72.6093C4.74016 72.5838 4.71875 72.5443 4.71875 72.4844H3.71875ZM4.89062 73.6562V74.6562H40.0381V73.6562V72.6562H4.89062V73.6562ZM40.0381 73.6562L39.0508 73.4973C39.0171 73.7069 39 73.9205 39 74.1367H40H41C41 74.0259 41.0087 73.9185 41.0254 73.8152L40.0381 73.6562ZM40 74.1367L39 74.1342C39 74.1264 38.9878 74.3989 39.0361 74.7737C39.0837 75.1441 39.1928 75.6472 39.4451 76.1699L40.3457 75.7354L41.2463 75.3008C40.9705 74.7291 40.9999 74.1732 41 74.1392L40 74.1367ZM40.3457 75.7354L39.4445 76.1688L39.5559 76.4003L40.457 75.9668L41.3582 75.5333L41.2469 75.3019L40.3457 75.7354ZM40.457 75.9668L39.6401 76.5435L39.6635 76.5767L40.4805 76L41.2974 75.4233L41.274 75.3901L40.457 75.9668ZM40.4805 76V75H4.89062V76V77H40.4805V76ZM4.89062 76V75C3.50463 75 2.375 73.8704 2.375 72.4844H1.375H0.375C0.375 74.9749 2.40006 77 4.89062 77V76ZM1.375 72.4844H2.375V4.51562H1.375H0.375V72.4844H1.375ZM1.375 4.51562H2.375C2.375 3.12963 3.50463 2 4.89062 2V1V0C2.40006 0 0.375 2.02506 0.375 4.51562H1.375ZM4.89062 1V2H37.7031V1V0H4.89062V1ZM38.875 20.3359H37.875C37.875 20.9711 38.1297 21.6009 38.4355 22.0596C38.5936 22.2966 38.7934 22.5311 39.0319 22.7169C39.2572 22.8924 39.6081 23.0938 40.0469 23.0938V22.0938V21.0938C40.2279 21.0938 40.3033 21.1721 40.2606 21.1389C40.2311 21.1158 40.1701 21.0559 40.0996 20.9502C40.0316 20.8481 39.9718 20.7288 39.9306 20.6098C39.8886 20.4883 39.875 20.3937 39.875 20.3359H38.875ZM40.0469 22.0938V23.0938H53.8447V22.0938V21.0938H40.0469V22.0938ZM53.8447 22.0938L54.5921 21.4294L39.6224 4.58952L38.875 5.25391L38.1276 5.91829L53.0973 22.7581L53.8447 22.0938ZM38.875 5.25391H37.875V20.3359H38.875H39.875V5.25391H38.875Z" fill="#FF8546" mask="url(#path-2-outside-1_383_243)"/>
<path fill-rule="evenodd" clip-rule="evenodd" d="M55.4215 68.9133L57.8751 65.5019C57.9536 65.3929 58.0268 65.2801 58.0944 65.164C59.6491 65.2229 61.1814 64.7795 62.4644 63.8996C63.7475 63.0197 64.7131 61.75 65.2182 60.2785C65.7234 58.807 65.7413 57.2119 65.2692 55.7295C64.7971 54.247 63.8602 52.956 62.5972 52.0475C61.3342 51.1391 59.8122 50.6615 58.2565 50.6856C56.7009 50.7096 55.1944 51.2339 53.96 52.1809C52.7257 53.1279 51.8291 54.4472 51.403 55.9436C50.9769 57.4399 51.044 59.0336 51.5944 60.4888C51.5052 60.5894 51.4212 60.6943 51.3424 60.8032L43.8245 71.2555C43.2015 72.1218 42.948 73.2001 43.12 74.2533C43.292 75.3064 43.8753 76.2481 44.7415 76.8712C45.6078 77.4943 46.6862 77.7477 47.7393 77.5758C48.7924 77.4038 49.7341 76.8205 50.3572 75.9542C50.4266 75.8578 50.4738 75.7473 50.4954 75.6305C50.517 75.5138 50.5125 75.3937 50.4822 75.2789L50.0623 73.6962L51.3831 73.8334C51.5241 73.8482 51.6666 73.8254 51.7961 73.7674C51.9255 73.7095 52.0373 73.6183 52.1202 73.5032L52.8485 72.4906C52.9728 72.3176 53.0235 72.1024 52.9894 71.8922L52.6262 69.6465L54.9102 69.2355C55.116 69.1986 55.2994 69.083 55.4215 68.9133ZM56.8596 64.0281C56.7864 64.2153 56.6889 64.395 56.5686 64.5622L54.3048 67.7096L51.5636 68.2022C51.3559 68.2395 51.1711 68.3569 51.0491 68.5291C50.9271 68.7013 50.8777 68.9145 50.9114 69.1228L51.3474 71.8213L51.0862 72.1845L49.0698 71.9753C48.9403 71.9617 48.8093 71.9798 48.6883 72.0279C48.5673 72.0761 48.4597 72.1529 48.3749 72.2519C48.2901 72.3508 48.2306 72.4688 48.2015 72.5958C48.1724 72.7227 48.1746 72.8549 48.2078 72.9809L48.8202 75.2908C48.3955 75.7291 47.8204 75.9903 47.2108 76.0217C46.6013 76.0531 46.0024 75.8524 45.5349 75.4601C45.0673 75.0678 44.7657 74.5129 44.6908 73.9071C44.6159 73.3014 44.7732 72.6897 45.1311 72.1953L52.649 61.743C52.7693 61.5758 52.9086 61.4262 53.0628 61.2972C53.1996 61.183 53.2947 61.0266 53.333 60.8526C53.3714 60.6785 53.3509 60.4967 53.2747 60.3355C52.7409 59.2067 52.5974 57.9325 52.8666 56.7131C53.1358 55.4938 53.8025 54.3985 54.762 53.5993C55.7214 52.8002 56.9193 52.3425 58.1672 52.2982C59.4151 52.2539 60.6423 52.6255 61.656 53.3546C62.6698 54.0838 63.4125 55.1291 63.7674 56.3262C64.1224 57.5234 64.0695 58.8046 63.6171 59.9684C63.1647 61.1323 62.3383 62.1128 61.268 62.7559C60.1976 63.399 58.9439 63.6682 57.7039 63.5212C57.5269 63.5003 57.348 63.5387 57.1951 63.6304C57.0423 63.7222 56.9243 63.862 56.8596 64.0281Z" fill="#FF8546"/>
<path fill-rule="evenodd" clip-rule="evenodd" d="M57.8984 58.5797C58.4182 58.9536 59.0652 59.1056 59.6971 59.0024C60.3289 58.8993 60.894 58.5493 61.2678 58.0295C61.6417 57.5097 61.7937 56.8628 61.6905 56.2309C61.5874 55.599 61.2374 55.034 60.7176 54.6601C60.1978 54.2863 59.5508 54.1342 58.919 54.2374C58.2871 54.3406 57.7221 54.6905 57.3482 55.2103C56.9744 55.7301 56.8223 56.3771 56.9255 57.009C57.0287 57.6408 57.3786 58.2059 57.8984 58.5797ZM59.7779 55.9666C59.9511 56.0913 60.0678 56.2796 60.1022 56.4902C60.1366 56.7009 60.0859 56.9165 59.9613 57.0898C59.8367 57.263 59.6483 57.3797 59.4377 57.4141C59.2271 57.4485 59.0114 57.3978 58.8381 57.2732C58.6649 57.1486 58.5482 56.9602 58.5138 56.7496C58.4794 56.539 58.5301 56.3233 58.6547 56.15C58.7794 55.9768 58.9677 55.8601 59.1783 55.8257C59.389 55.7913 59.6046 55.842 59.7779 55.9666Z" fill="#FF8546"/>
</svg>
