<svg width="81" height="75" viewBox="0 0 81 75" fill="none" xmlns="http://www.w3.org/2000/svg">
<path d="M43.4502 56.159V60.2H39.5502V56.3426C36.2118 56.1626 33.5715 55.2824 31.2803 53.108L34.6304 49.976C36.3054 51.542 38.5752 52.064 41.0303 52.064C44.082 52.064 45.72 50.9858 45.72 49.0004C45.72 48.131 45.4607 47.4002 44.901 46.9124C44.3804 46.4606 43.7856 46.2158 42.5571 46.043L39.3552 45.6254C37.0854 45.3122 35.4123 44.6516 34.2189 43.5716C32.9553 42.389 32.3216 40.7888 32.3216 38.699C32.3216 34.82 35.0165 31.9616 39.5502 31.319V27.8H43.4502V31.2776C46.1451 31.5386 48.257 32.3936 50.1095 34.0694L46.8354 37.097C45.1604 35.5994 43.1519 35.3924 41.4008 35.3924C38.6474 35.3924 37.3077 36.818 37.3077 38.5244C37.3077 39.1508 37.532 39.8132 38.0897 40.2992C38.6103 40.7528 39.4664 41.1344 40.5467 41.273L43.6706 41.6906C46.0905 42.0038 47.6154 42.6302 48.7328 43.604C50.1485 44.8568 50.7803 46.6676 50.7803 48.86C50.7803 52.91 47.7246 55.4516 43.4502 56.159Z" fill="#FF8546"/>
<path d="M44.3175 1.59206C43.3049 0.572666 41.9318 0 40.5 0C39.0682 0 37.6951 0.572666 36.6825 1.59206L0.791744 37.7305C0.54073 37.9833 0.341615 38.2834 0.205768 38.6137C0.0699199 38.944 0 39.2979 0 39.6554C0 40.0129 0.0699199 40.3669 0.205768 40.6972C0.341615 41.0275 0.54073 41.3276 0.791744 41.5804C1.29869 42.0909 1.98625 42.3777 2.70318 42.3777C3.05817 42.3777 3.40968 42.3073 3.73765 42.1705C4.06561 42.0337 4.36361 41.8331 4.61462 41.5804L8.10273 38.0622V66.8436C8.10273 69.0068 8.95605 71.0814 10.475 72.611C11.9939 74.1407 14.054 75 16.202 75H64.798C66.946 75 69.0061 74.1407 70.525 72.611C72.044 71.0814 72.8973 69.0068 72.8973 66.8436V38.0622L76.3854 41.5804C76.8923 42.0909 77.5799 42.3777 78.2968 42.3777C79.0137 42.3777 79.7013 42.0909 80.2083 41.5804C80.7152 41.0698 81 40.3774 81 39.6554C81 38.9335 80.7152 38.241 80.2083 37.7305L67.4977 24.9358V7.02969C67.4977 6.30861 67.2133 5.61707 66.707 5.1072C66.2007 4.59732 65.514 4.31088 64.798 4.31088H59.3984C58.6824 4.31088 57.9957 4.59732 57.4894 5.1072C56.9831 5.61707 56.6986 6.30861 56.6986 7.02969V14.0605L44.3175 1.59206ZM67.4977 32.6246V66.8436C67.4977 67.5646 67.2133 68.2562 66.707 68.7661C66.2007 69.2759 65.514 69.5624 64.798 69.5624H16.202C15.486 69.5624 14.7993 69.2759 14.293 68.7661C13.7867 68.2562 13.5023 67.5646 13.5023 66.8436V32.6246L40.5 5.43646L67.4977 32.6246Z" fill="#FF8546"/>
</svg>
