<svg width="75" height="91" viewBox="0 0 75 91" fill="none" xmlns="http://www.w3.org/2000/svg">
<path d="M30.5778 0.102463C29.0915 0.565552 27.7869 1.69021 27.1264 3.09602L26.697 4.00567L26.6475 14.7395L26.5979 25.4733L25.7722 26.383C20.2731 32.4032 16.4088 41.2185 15.0546 50.8111C14.7574 52.9116 14.5757 53.6062 13.8821 55.3594C13.4362 56.5005 12.9904 57.5425 12.9078 57.6748C12.7922 57.8568 12.5775 57.741 11.8509 57.0463C11.0252 56.269 10.8766 56.1863 10.183 56.1863H9.42334L5.04712 60.5195L0.687412 64.8693L0.670898 65.6136V66.3578L12.8583 78.4644C19.563 85.1296 25.2438 90.6702 25.4915 90.7694C25.7392 90.8687 26.1521 90.9017 26.3998 90.8356C26.697 90.7694 28.3814 89.2148 31.1888 86.4031C35.5155 82.0864 35.532 82.0699 35.532 81.3587C35.532 80.7633 35.4329 80.5483 34.8715 79.9364L34.1944 79.2086L34.6568 78.7621C36.4733 77.042 38.8348 76.0331 44.4496 74.6108C50.0644 73.1719 52.4259 72.2953 54.6883 70.7407C55.6791 70.0626 57.2149 68.6071 57.9085 67.6809L58.3544 67.1021H60.237C61.2609 67.1021 62.4664 67.0194 62.9123 66.9201C64.6793 66.5563 66.2481 65.167 66.8426 63.4966C67.0903 62.835 67.2555 62.6531 67.916 62.3223C68.9895 61.793 70.0133 60.7511 70.5087 59.676C70.8555 58.9152 70.9051 58.6341 70.839 57.4433C70.7895 56.5005 70.6574 55.8555 70.4097 55.3594L70.0629 54.6482L70.9051 53.8047C72.0941 52.6304 72.6886 51.3073 72.6886 49.8188C72.6886 48.3633 72.4904 47.6522 71.7968 46.6102L71.2354 45.7833L71.8794 45.3367C74.1418 43.7655 75.0996 41.2681 74.3565 38.8865C73.795 37.0507 73.0189 36.2072 70.6409 34.7683C70.3766 34.6194 70.3766 34.5367 70.6409 33.5278C71.0042 32.0724 70.9051 29.9223 70.3931 28.8804C69.8977 27.8384 69.039 26.8626 68.0647 26.2341L67.2555 25.7049L67.2059 14.938C67.1564 4.96494 67.1234 4.1049 66.8426 3.39372C66.4463 2.35177 65.2573 1.04518 64.2004 0.482857L63.3582 0.0363007L47.1744 0.00322723C38.2734 -0.0133133 30.809 0.0363007 30.5778 0.102463ZM62.7141 3.52604C63.3086 3.80721 63.5398 4.12144 63.771 4.93185L63.9196 5.41149H46.9102H29.9173L30.0163 4.94839C30.198 4.25375 30.5943 3.74104 31.1558 3.49296C31.5521 3.31103 34.6072 3.27795 46.8937 3.26141C60.6664 3.26141 62.2022 3.29449 62.7141 3.52604ZM63.771 16.7407C63.771 21.0574 63.771 24.6464 63.771 24.7125C63.771 24.7952 62.8958 24.8945 61.8389 24.9441C60.4187 25.0102 59.6425 25.126 58.9985 25.3906C54.9856 26.9784 53.4332 30.7824 55.4479 34.1232L56.0259 35.099L55.6461 35.3471C54.7048 35.9591 53.8296 36.9514 53.3176 37.9768C52.8552 38.9361 52.7892 39.2173 52.7892 40.4742C52.7892 41.665 52.8552 42.0124 53.2351 42.7897C53.4828 43.2859 53.9782 43.997 54.3415 44.3444L55.0021 44.9894L54.3415 45.7171C53.9617 46.1306 53.4663 46.8748 53.2351 47.3875C52.624 48.6776 52.6075 50.778 53.169 51.8531L53.5323 52.5477H41.7248H29.9173V48.0326V43.5174L30.9081 41.8966C32.0971 39.945 32.8237 38.9196 35.0201 36.0914C36.8201 33.7759 37.9926 31.6589 38.4385 29.9058C38.8183 28.3842 38.7027 26.2507 38.1908 25.1922C36.9687 22.6948 34.1118 21.5536 31.2549 22.4302C30.6274 22.6286 30.0659 22.7775 30.0163 22.7775C29.9668 22.7775 29.9173 19.6516 29.9173 15.8311V8.88468H46.8441H63.771V16.7407ZM34.1614 25.7049C35.5651 26.3664 35.7467 28.1527 34.6568 30.4516C33.9467 31.9401 33.4347 32.7174 31.6677 34.9337C29.0585 38.2084 25.9539 43.4513 24.6328 46.7921C24.0052 48.4295 24.5502 49.5707 25.9704 49.5707H26.5979L26.6475 56.3021C26.697 62.8185 26.7135 63.0831 27.0603 63.8273C27.5557 64.9189 28.5796 65.9609 29.7026 66.5397L30.6604 67.0194L42.2202 67.1021L53.78 67.1848L52.9543 67.8132C51.2038 69.1694 48.9579 70.0129 43.4588 71.4188C37.5467 72.9073 34.7228 74.1477 32.4604 76.2316L31.7999 76.8436L23.5593 68.7064L15.3188 60.5692L16.1776 58.5845C17.5152 55.4586 18.0106 53.937 18.1923 52.3989C18.7868 47.371 20.3226 41.9297 22.3043 37.7453C24.897 32.304 28.9264 27.1768 31.6182 25.9033C32.7907 25.3576 33.3357 25.3079 34.1614 25.7049ZM65.6866 28.6819C66.4793 29.1119 67.3546 30.0546 67.5032 30.65C67.6683 31.2785 67.4371 33.0317 67.1564 33.4617C66.7601 34.0736 65.8848 34.239 63.1765 34.1729C60.8811 34.1067 60.6499 34.0736 59.7746 33.6436C58.1893 32.8663 57.5617 31.6093 58.1232 30.3193C58.8168 28.7811 60.1544 28.2188 63.0279 28.285C64.6793 28.318 65.1252 28.3842 65.6866 28.6819ZM68.9069 37.7453C70.4262 38.2911 71.2023 39.2338 71.2023 40.5569C71.2023 41.2019 71.1198 41.4004 70.5253 42.0454C69.3693 43.3024 69.0225 43.3686 63.6059 43.3686H58.8994L57.9416 42.9055C57.0003 42.4424 56.3232 41.7312 56.092 41.0035C55.7122 39.7465 56.9177 38.1753 58.6517 37.6461C58.8829 37.5799 61.1123 37.5137 63.6224 37.5137C67.305 37.4972 68.3289 37.5468 68.9069 37.7453ZM67.6188 47.2387C68.9069 47.8672 69.617 49.1407 69.3197 50.2984C69.1546 50.9765 68.2959 51.82 67.4041 52.2004C66.5949 52.5477 66.3637 52.5643 62.4664 52.5146L58.3709 52.465L57.5617 51.9689C56.3067 51.175 55.6957 49.8188 56.1911 48.8595C56.637 47.9995 57.5948 47.2387 58.6517 46.9079C58.8829 46.8418 60.815 46.7921 62.9453 46.8087C66.661 46.8418 66.8591 46.8583 67.6188 47.2387ZM55.0186 56.054C55.0186 56.0871 54.903 56.4013 54.7709 56.7652C54.2755 58.171 54.6388 59.6926 55.7617 60.9496C57.0993 62.4381 59.1636 63.2981 61.393 63.2981C62.7967 63.2981 63.0279 63.5627 61.7563 63.7116C61.2774 63.7612 54.2589 63.7943 46.1505 63.7612C31.5521 63.7116 31.42 63.7116 30.9576 63.3642C30.0328 62.6861 29.9173 62.19 29.9173 58.9483V56.0209H42.4679C49.3708 56.0209 55.0186 56.0375 55.0186 56.054ZM67.0738 56.3186C67.3381 56.5336 67.4702 56.8479 67.5362 57.4764C67.6023 58.3033 67.5858 58.3695 67.0078 58.9152C66.149 59.7257 65.0921 59.9903 62.7802 59.9903C60.6168 59.9903 59.4443 59.7257 58.6517 59.0641C57.9085 58.4191 57.7764 58.0883 58.0572 57.5425C58.2884 57.096 59.2792 56.4344 60.1049 56.1863C60.3526 56.1036 61.938 56.0375 63.6224 56.0375C66.3637 56.0209 66.7435 56.054 67.0738 56.3186ZM24.4676 74.3462L31.4861 81.3256L28.7282 84.0877L25.9869 86.8331L15.3519 76.2316L4.73335 65.6301L7.45817 62.8846L10.183 60.1557L13.8161 63.7612C15.8143 65.7293 20.6033 70.4926 24.4676 74.3462Z" fill="#FF8546"/>
<path d="M44.3509 58.3363C43.36 58.7333 43.1453 60.1887 43.938 60.9991L44.4169 61.4788H46.9271H49.4372L49.9161 60.9991C50.2629 60.6353 50.395 60.3541 50.395 59.9076C50.395 58.4687 49.8005 58.171 46.894 58.1875C45.6885 58.1875 44.5325 58.2536 44.3509 58.3363Z" fill="#FF8546"/>
<path d="M48.3689 36.026V39.0684H45.4836V36.1643C43.0137 36.0287 41.0604 35.3661 39.3652 33.729L41.8437 31.371C43.083 32.55 44.7622 32.943 46.5786 32.943C48.8363 32.943 50.0482 32.1312 50.0482 30.6364C50.0482 29.9819 49.8563 29.4317 49.4423 29.0644C49.0571 28.7243 48.617 28.54 47.7082 28.4099L45.3393 28.0955C43.66 27.8597 42.4222 27.3623 41.5393 26.5492C40.6045 25.6588 40.1356 24.4541 40.1356 22.8807C40.1356 19.9603 42.1294 17.8082 45.4836 17.3244V14.675H48.3689V17.2933C50.3627 17.4898 51.9251 18.1335 53.2956 19.3952L50.8734 21.6746C49.6341 20.5471 48.1482 20.3912 46.8527 20.3912C44.8156 20.3912 43.8245 21.4645 43.8245 22.7493C43.8245 23.2209 43.9904 23.7196 44.403 24.0855C44.7882 24.427 45.4215 24.7143 46.2208 24.8186L48.5319 25.133C50.3223 25.3688 51.4504 25.8404 52.2771 26.5736C53.3245 27.5168 53.7919 28.8801 53.7919 30.5307C53.7919 33.5799 51.5312 35.4934 48.3689 36.026Z" fill="#FF8546"/>
</svg>
