<svg width="67" height="86" viewBox="0 0 67 86" fill="none" xmlns="http://www.w3.org/2000/svg">
<path d="M66.9581 8.08845C66.9018 7.81881 66.7929 7.56292 66.6375 7.33545C66.4822 7.10798 66.2835 6.9134 66.0528 6.76285C65.8221 6.61231 65.564 6.50876 65.2933 6.45815C65.0225 6.40753 64.7444 6.41084 64.4749 6.46789C59.3599 7.54818 54.0774 7.56514 48.9556 6.51772C43.8338 5.47031 38.9821 3.38089 34.7018 0.379271C34.3497 0.132424 33.9301 0 33.5 0C33.07 0 32.6503 0.132424 32.2982 0.379271C28.0179 3.38066 23.1661 5.46994 18.0443 6.51735C12.9225 7.56476 7.64011 7.54792 2.5251 6.46789C2.21981 6.40203 1.90362 6.40559 1.59989 6.4783C1.29616 6.55101 1.01263 6.69101 0.770251 6.88797C0.527871 7.08493 0.332826 7.33381 0.199517 7.61625C0.0662072 7.89868 -0.00196218 8.20745 4.29865e-05 8.51976V42.0951C0.00368463 48.1559 1.44803 54.129 4.21398 59.5218C6.97993 64.9147 10.9882 69.5727 15.9083 73.1119L32.2814 84.8536C32.6361 85.1098 33.0625 85.2477 33.5 85.2477C33.9375 85.2477 34.3639 85.1098 34.7186 84.8536L51.0917 73.1119C56.0118 69.5727 60.0201 64.9147 62.786 59.5218C65.552 54.129 66.9963 48.1559 67 42.0951V8.51557C67.0007 8.37214 66.9867 8.22901 66.9581 8.08845ZM62.8125 42.0951C62.8108 47.4906 61.5266 52.8084 59.0657 57.6101C56.6048 62.4117 53.0378 66.5596 48.6587 69.7116L33.5 80.574L18.3413 69.7158C13.9619 66.5631 10.3947 62.4145 7.93385 57.6122C5.47297 52.8098 4.18891 47.4913 4.18754 42.0951V11.0239C14.4132 12.5495 24.8433 10.2698 33.5 4.61702C42.1572 10.2687 52.5868 12.5483 62.8125 11.0239V42.0951Z" fill="#FF8546"/>
<path d="M33.4902 14.2327C34.4487 14.2328 35.3723 14.592 36.0811 15.2396L36.0918 15.2493L36.1016 15.2601L36.1094 15.2679L54.1133 32.3343C54.5055 32.6967 54.8191 33.1372 55.0332 33.6273C55.2472 34.1173 55.3574 34.6469 55.3574 35.1819V56.0892C55.3574 57.1147 54.9516 58.099 54.2295 58.8245C53.5074 59.5499 52.5275 59.9573 51.5059 59.9573H40.7021C39.6805 59.9572 38.7006 59.55 37.9785 58.8245C37.2564 58.099 36.8516 57.1147 36.8516 56.0892V45.4847H30.1484V56.0892C30.1484 57.1147 29.7436 58.099 29.0215 58.8245C28.2994 59.55 27.3195 59.9573 26.2979 59.9573H15.4941C14.4725 59.9573 13.4926 59.5499 12.7705 58.8245C12.0484 58.099 11.6426 57.1147 11.6426 56.0892V35.1819C11.6426 34.6469 11.7528 34.1173 11.9668 33.6273C12.1809 33.1372 12.4945 32.6967 12.8867 32.3343L30.8701 15.2679L30.8896 15.2474L30.8984 15.2396L31.0342 15.1214C31.7233 14.5484 32.5916 14.2327 33.4902 14.2327ZM15.7441 35.2894V55.8392H26.0479V45.2347C26.0479 44.2091 26.4527 43.2249 27.1748 42.4993C27.8969 41.7738 28.8768 41.3666 29.8984 41.3665H37.1016C38.1233 41.3666 39.1031 41.7738 39.8252 42.4993C40.5473 43.2249 40.9521 44.2091 40.9521 45.2347V55.8392H51.2559L51.2578 35.2855L33.5 18.4407L15.7441 35.2894Z" fill="#FF8546" stroke="#FF8546" stroke-width="0.5"/>
</svg>
