<svg width="69" height="83" viewBox="0 0 69 83" fill="none" xmlns="http://www.w3.org/2000/svg">
<path d="M55.2036 51L58.5738 53.4585L62.746 53.4508L64.0273 57.421L67.4071 59.8667L66.1105 63.8317L67.4071 67.7967L64.0273 70.2424L62.746 74.2125L58.5738 74.2048L55.2036 76.6633L51.8333 74.2048L47.6611 74.2125L46.3799 70.2424L43 67.7967L44.2966 63.8317L43 59.8667L46.3799 57.421L47.6611 53.4508L51.8333 53.4585L55.2036 51Z" stroke="#FF8546" stroke-width="3" stroke-linecap="round" stroke-linejoin="round"/>
<path d="M50.7129 63.8317L53.9208 67.0396L60.3366 60.6238" stroke="#FF8546" stroke-width="3" stroke-linecap="round" stroke-linejoin="round"/>
<path d="M33.8619 47.7583V51.4288H30.3811V47.9251C27.4015 47.7616 25.045 46.9621 23 44.9871L25.99 42.1424C27.485 43.5647 29.5109 44.0389 31.7021 44.0389C34.4258 44.0389 35.8877 43.0595 35.8877 41.2562C35.8877 40.4665 35.6563 39.8028 35.1568 39.3597C34.6921 38.9493 34.1613 38.727 33.0648 38.57L30.207 38.1907C28.1812 37.9062 26.6879 37.3062 25.6228 36.3253C24.495 35.2511 23.9294 33.7977 23.9294 31.8995C23.9294 28.3762 26.3346 25.78 30.3811 25.1963V22H33.8619V25.1587C36.2672 25.3958 38.152 26.1723 39.8054 27.6945L36.8833 30.4444C35.3882 29.0842 33.5956 28.8961 32.0327 28.8961C29.5753 28.8961 28.3796 30.191 28.3796 31.7409C28.3796 32.3099 28.5798 32.9115 29.0775 33.353C29.5422 33.765 30.3062 34.1116 31.2704 34.2375L34.0586 34.6168C36.2184 34.9012 37.5794 35.4702 38.5767 36.3547C39.8402 37.4926 40.4041 39.1373 40.4041 41.1287C40.4041 44.8073 37.6769 47.1158 33.8619 47.7583Z" fill="#FF8546"/>
<path d="M4.43751 63.5391C4.43751 67.2824 5.69765 70.8458 7.90137 73.4502C10.1008 76.0494 13.0443 77.4687 16.0703 77.4688H46.669L45.3496 79.0977C44.5376 80.1006 43.5519 80.9101 42.4473 81.4668C41.3422 82.0237 40.1451 82.3131 38.9297 82.3115V82.3125H16.0703C11.7575 82.3125 7.66287 80.2865 4.67286 76.7529C1.6871 73.2243 0.0312556 68.4691 0.0312556 63.5391V19.4609C0.0299366 18.1019 0.262097 16.7536 0.715826 15.4961C1.1697 14.2382 1.83811 13.0915 2.68848 12.1299L4.43751 10.1523V63.5391ZM46.1484 0.6875C48.5466 0.6875 50.8052 1.81454 52.4414 3.74805C54.0734 5.67675 54.9688 8.26227 54.9688 10.9297V46.0322C54.7208 46.099 54.5022 46.1798 54.2979 46.2764L54.0195 46.4219C54.0048 46.4303 53.9905 46.4401 53.9766 46.4482C53.9286 46.4666 53.8775 46.4869 53.8193 46.5088C53.6957 46.5553 53.5172 46.6218 53.332 46.6992C53.0084 46.8346 52.5537 47.0496 52.2783 47.1777C52.2591 47.1867 52.224 47.2022 52.1475 47.2344C52.0871 47.2598 51.972 47.3076 51.8672 47.3535C51.7584 47.4012 51.6073 47.4695 51.4463 47.5547C51.3729 47.5936 51.282 47.6454 51.1807 47.708C51.177 47.7095 51.1726 47.7105 51.169 47.7119C51.0567 47.7566 50.8258 47.8537 50.5625 48.0107V10.9297C50.5625 9.44895 50.0628 8.05526 49.2129 7.05078C48.3673 6.05168 47.2599 5.53125 46.1484 5.53125H16.0703C14.9589 5.53125 13.8515 6.05168 13.0059 7.05078C12.1559 8.05526 11.6563 9.44895 11.6563 10.9297V63.5391C11.6563 65.0198 12.1559 66.4135 13.0059 67.418C13.8515 68.4171 14.9589 68.9375 16.0703 68.9375H37.169C37.1698 69.0009 37.1719 69.0648 37.1768 69.1289C37.2339 69.8763 37.5554 70.5476 37.6279 70.7061C37.7577 70.9897 37.9273 71.3171 37.9912 71.4443C38.3292 72.1175 38.8005 72.6358 39.2754 73.0264C39.2863 73.0388 39.2993 73.0541 39.3203 73.0781C39.3733 73.1387 39.4872 73.2712 39.626 73.4092C39.7355 73.5181 39.8797 73.647 40.0557 73.7812H16.0703C13.6721 73.7812 11.4136 72.6542 9.77735 70.7207C8.14537 68.792 7.25001 66.2065 7.25001 63.5391V10.9297C7.25001 8.26227 8.14537 5.67675 9.77735 3.74805C11.4136 1.81454 13.6721 0.687504 16.0703 0.6875H46.1484ZM11.6953 71.1982C11.7229 71.2202 11.7505 71.2422 11.7783 71.2637C11.7505 71.2421 11.7229 71.2202 11.6953 71.1982ZM11.417 70.9678C11.4297 70.9789 11.4433 70.989 11.4561 71C11.4172 70.9665 11.3792 70.9319 11.3408 70.8975C11.3666 70.9206 11.391 70.9451 11.417 70.9678ZM11.1133 70.6885C11.1355 70.71 11.1592 70.7298 11.1816 70.751C11.1468 70.718 11.1116 70.6851 11.0772 70.6514L11.1133 70.6885ZM10.7666 70.3291C10.8003 70.3659 10.834 70.4024 10.8682 70.4385C10.834 70.4025 10.8003 70.3659 10.7666 70.3291ZM12.6387 68.4883C12.6494 68.4987 12.6611 68.5082 12.6719 68.5186C12.6567 68.5041 12.641 68.4902 12.626 68.4756L12.6387 68.4883ZM1.39844 16.6543C1.39547 16.6654 1.3926 16.6764 1.38965 16.6875C1.42706 16.5468 1.4676 16.4072 1.51075 16.2686L1.39844 16.6543ZM10.54 4.39453L10.4053 4.5625C10.4504 4.50643 10.4946 4.44938 10.541 4.39453C10.5582 4.37424 10.5755 4.35407 10.5928 4.33398C10.5753 4.35423 10.5574 4.37407 10.54 4.39453ZM10.8672 4.03027C10.8337 4.06564 10.8006 4.10159 10.7676 4.1377C10.8007 4.10162 10.8337 4.06562 10.8672 4.03027ZM50.8008 3.50098C51.0067 3.68112 51.2062 3.8734 51.3975 4.07812C51.3019 3.97591 51.2048 3.87641 51.1055 3.78027C51.0061 3.68403 50.9047 3.59103 50.8018 3.50098H50.8008ZM11.1133 3.78027C11.1009 3.79227 11.0895 3.80529 11.0772 3.81738C11.1154 3.77989 11.1536 3.74263 11.1924 3.70605C11.1661 3.73081 11.1393 3.75508 11.1133 3.78027ZM11.7686 3.21191C11.7453 3.22995 11.7223 3.24826 11.6992 3.2666C11.7223 3.24823 11.7454 3.22998 11.7686 3.21191Z" fill="#FF8546"/>
</svg>
