<svg width="40" height="40" viewBox="0 0 40 40" fill="none" xmlns="http://www.w3.org/2000/svg">
<g filter="url(#filter0_d_260_843)">
<path d="M31.25 4H26.75V1.75C26.75 1.55109 26.671 1.36032 26.5303 1.21967C26.3897 1.07902 26.1989 1 26 1C25.8011 1 25.6103 1.07902 25.4697 1.21967C25.329 1.36032 25.25 1.55109 25.25 1.75V4H14.75V1.75C14.75 1.55109 14.671 1.36032 14.5303 1.21967C14.3897 1.07902 14.1989 1 14 1C13.8011 1 13.6103 1.07902 13.4697 1.21967C13.329 1.36032 13.25 1.55109 13.25 1.75V4H8.75C7.7558 4.00119 6.80267 4.39666 6.09966 5.09966C5.39666 5.80267 5.00119 6.7558 5 7.75V27.25C5.00119 28.2442 5.39666 29.1973 6.09966 29.9003C6.80267 30.6033 7.7558 30.9988 8.75 31H31.25C32.2446 31 33.1984 30.6049 33.9016 29.9016C34.6049 29.1984 35 28.2446 35 27.25V7.75C35 6.75544 34.6049 5.80161 33.9016 5.09835C33.1984 4.39509 32.2446 4 31.25 4ZM33.5 27.25C33.5 27.8467 33.2629 28.419 32.841 28.841C32.419 29.2629 31.8467 29.5 31.25 29.5H8.75C8.15326 29.5 7.58097 29.2629 7.15901 28.841C6.73705 28.419 6.5 27.8467 6.5 27.25V14.5H33.5V27.25ZM33.5 13H6.5V7.75C6.5 6.508 7.505 5.5 8.75 5.5H13.25V7.75C13.25 7.94891 13.329 8.13968 13.4697 8.28033C13.6103 8.42098 13.8011 8.5 14 8.5C14.1989 8.5 14.3897 8.42098 14.5303 8.28033C14.671 8.13968 14.75 7.94891 14.75 7.75V5.5H25.25V7.75C25.25 7.94891 25.329 8.13968 25.4697 8.28033C25.6103 8.42098 25.8011 8.5 26 8.5C26.1989 8.5 26.3897 8.42098 26.5303 8.28033C26.671 8.13968 26.75 7.94891 26.75 7.75V5.5H31.25C31.8467 5.5 32.419 5.73705 32.841 6.15901C33.2629 6.58097 33.5 7.15326 33.5 7.75V13Z" fill="white"/>
<path d="M26 0.5C26.3315 0.5 26.6494 0.631791 26.8838 0.866211C27.1182 1.10063 27.25 1.41848 27.25 1.75V3.5H31.25C32.3772 3.5 33.4579 3.94809 34.2549 4.74512C35.0519 5.54215 35.5 6.62283 35.5 7.75V27.25C35.5 28.3772 35.0519 29.4579 34.2549 30.2549C33.4579 31.0519 32.3772 31.5 31.25 31.5H8.74902C7.62256 31.4986 6.54263 31.0504 5.74609 30.2539C4.94956 29.4574 4.50145 28.3774 4.5 27.251V7.74902L4.50586 7.53906C4.55906 6.4891 4.99919 5.49299 5.74609 4.74609C6.54263 3.94956 7.62256 3.50145 8.74902 3.5H12.75V1.75C12.75 1.41848 12.8818 1.10063 13.1162 0.866211C13.3506 0.631791 13.6685 0.5 14 0.5C14.3315 0.5 14.6494 0.631791 14.8838 0.866211C15.1182 1.10063 15.25 1.41848 15.25 1.75V3.5H24.75V1.75C24.75 1.41848 24.8818 1.10063 25.1162 0.866211C25.3506 0.631791 25.6685 0.5 26 0.5ZM7 27.25C7 27.7141 7.18451 28.1591 7.5127 28.4873C7.84088 28.8155 8.28587 29 8.75 29H31.25C31.7141 29 32.1591 28.8155 32.4873 28.4873C32.8155 28.1591 33 27.7141 33 27.25V15H7V27.25ZM8.75 6C7.78158 6 7 6.78371 7 7.75V12.5H33V7.75C33 7.28587 32.8155 6.84088 32.4873 6.5127C32.1591 6.18451 31.7141 6 31.25 6H27.25V7.75C27.25 8.08152 27.1182 8.39937 26.8838 8.63379C26.6494 8.86821 26.3315 9 26 9C25.6685 9 25.3506 8.86821 25.1162 8.63379C24.8818 8.39937 24.75 8.08152 24.75 7.75V6H15.25V7.75C15.25 8.08152 15.1182 8.39937 14.8838 8.63379C14.6494 8.86821 14.3315 9 14 9C13.6685 9 13.3506 8.86821 13.1162 8.63379C12.8818 8.39937 12.75 8.08152 12.75 7.75V6H8.75Z" stroke="white"/>
</g>
<defs>
<filter id="filter0_d_260_843" x="0" y="0" width="40" height="40" filterUnits="userSpaceOnUse" color-interpolation-filters="sRGB">
<feFlood flood-opacity="0" result="BackgroundImageFix"/>
<feColorMatrix in="SourceAlpha" type="matrix" values="0 0 0 0 0 0 0 0 0 0 0 0 0 0 0 0 0 0 127 0" result="hardAlpha"/>
<feOffset dy="4"/>
<feGaussianBlur stdDeviation="2"/>
<feComposite in2="hardAlpha" operator="out"/>
<feColorMatrix type="matrix" values="0 0 0 0 0 0 0 0 0 0 0 0 0 0 0 0 0 0 0.25 0"/>
<feBlend mode="normal" in2="BackgroundImageFix" result="effect1_dropShadow_260_843"/>
<feBlend mode="normal" in="SourceGraphic" in2="effect1_dropShadow_260_843" result="shape"/>
</filter>
</defs>
</svg>
