<svg width="55" height="37" viewBox="0 0 55 37" fill="none" xmlns="http://www.w3.org/2000/svg">
<path d="M49.3797 1.00457C51.9235 1.0046 53.9954 3.08225 53.9954 5.62027V30.5461C53.9954 33.0899 51.9178 35.1617 49.3797 35.1618H5.62027C3.08077 35.1617 1.0047 33.0843 1.00457 30.5421V5.62027C1.0046 3.07646 3.08225 1.0046 5.62027 1.00457H49.3797Z" stroke="#FF8546" stroke-width="2"/>
<path d="M18.9474 28.2562V28.7576H6.15101V28.2562C6.15101 26.2892 8.64486 25.3375 11.4106 25.1379V25.0019C10.2465 24.6493 9.20566 23.7741 8.6916 22.3339C8.16478 22.1469 7.86314 20.4178 8.00334 20.1926C7.90138 19.4661 7.21313 13.7689 12.5492 13.7307C17.8726 13.7562 17.1928 19.4406 17.0823 20.1799C17.2183 20.405 16.9209 22.1342 16.3941 22.3211C15.8928 23.7613 14.8519 24.6493 13.6878 25.0019V25.1251C16.4706 25.3503 18.9474 26.4039 18.9474 28.2562Z" fill="#FF8546"/>
<path d="M49.3797 2.0049H5.62034C3.63205 2.0049 2.00913 3.63207 2.00913 5.61611V7.88055H52.9909V5.61611C52.9909 3.63207 51.3637 2.0049 49.3797 2.0049Z" fill="#FF8546" fill-opacity="0.76"/>
<path d="M33.9111 13.7307H23.3918C22.8353 13.7307 22.385 13.2803 22.385 12.7238C22.385 12.1672 22.8353 11.7169 23.3918 11.7169H33.9111C34.4676 11.7169 34.918 12.1672 34.918 12.7238C34.9167 12.9904 34.8103 13.2458 34.6217 13.4344C34.4331 13.623 34.1777 13.7294 33.9111 13.7307ZM37.6795 18.7396H23.3918C22.8353 18.7396 22.385 18.2893 22.385 17.7327C22.385 17.1762 22.8353 16.7258 23.3918 16.7258H37.6795C38.236 16.7258 38.6864 17.1762 38.6864 17.7327C38.6851 17.9994 38.5787 18.2548 38.3901 18.4434C38.2015 18.6319 37.9461 18.7384 37.6795 18.7396ZM32.2882 23.7486H23.3918C22.8353 23.7486 22.385 23.2982 22.385 22.7417C22.385 22.1851 22.8353 21.7348 23.3918 21.7348H32.2882C32.8447 21.7348 33.295 22.1851 33.295 22.7417C33.2938 23.0084 33.1873 23.2638 32.9988 23.4523C32.8102 23.6409 32.5548 23.7474 32.2882 23.7486ZM29.8665 28.7575H23.3918C22.8353 28.7575 22.385 28.3072 22.385 27.7507C22.385 27.1941 22.8353 26.7438 23.3918 26.7438H29.8665C30.4231 26.7438 30.8734 27.1941 30.8734 27.7507C30.8734 28.3072 30.4231 28.7575 29.8665 28.7575Z" fill="#FF8546" fill-opacity="0.69"/>
<path d="M52.9913 13.7434C52.919 13.7392 52.8468 13.7307 52.7704 13.7307C49.4395 13.7307 46.7418 16.4285 46.7418 19.7593C46.7418 23.0901 49.4395 25.7879 52.7704 25.7879C52.8426 25.7879 52.9148 25.7794 52.9913 25.7751V13.7434Z" fill="#FF8546" fill-opacity="0.63"/>
</svg>
