<svg width="31" height="28" viewBox="0 0 31 28" fill="none" xmlns="http://www.w3.org/2000/svg">
<path d="M25.8333 25.5329L28.9979 27.4575L28.1583 23.8279L31 21.3996L27.2671 21.0767L25.8333 17.6667L24.3738 21.0767L20.6667 21.3996L23.4825 23.8279L22.6042 27.4575L25.8333 25.5329ZM18.1867 24.125H2.58333C1.90576 24.1012 1.2624 23.8214 0.782989 23.342C0.303577 22.8626 0.0237737 22.2192 0 21.5417L0 3.45833C0.0516667 2.05042 1.17542 0.926667 2.58333 0.875H28.4167C29.8246 0.926667 30.9483 2.05042 31 3.45833V17.0596C30.2508 16.375 29.3854 15.8713 28.4167 15.5225V3.45833H2.58333V21.5417H18.1867C18.1221 21.9679 18.0833 22.3942 18.0833 22.8333C18.0833 23.2725 18.1221 23.7117 18.1867 24.125ZM18.0833 18.9583H5.16667V17.3438C5.16667 15.1996 9.48083 14.1146 11.625 14.1146C13.7692 14.1146 18.0833 15.1996 18.0833 17.3438V18.9583ZM18.0833 11.2083H23.25V12.5H18.0833V11.2083ZM11.625 6.04167C9.85542 6.04167 8.39583 7.50125 8.39583 9.27083C8.39583 11.0404 9.85542 12.5 11.625 12.5C13.3946 12.5 14.8542 11.0404 14.8542 9.27083C14.8542 7.50125 13.3946 6.04167 11.625 6.04167ZM18.0833 8.625H25.8333V9.91667H18.0833V8.625ZM18.0833 6.04167H25.8333V7.33333H18.0833V6.04167Z" fill="#333333"/>
</svg>
