<svg width="20" height="24" viewBox="0 0 20 24" fill="none" xmlns="http://www.w3.org/2000/svg">
<path d="M9.70996 0.5C9.87015 0.5 10.0281 0.536585 10.1709 0.606445L10.3086 0.6875L10.7109 0.953125C11.6655 1.54744 12.7213 1.96768 13.8281 2.19238C15.093 2.44912 16.3979 2.44442 17.6611 2.17969C17.7951 2.15154 17.9338 2.14983 18.0684 2.1748C18.2028 2.19977 18.3314 2.2508 18.4463 2.3252C18.5612 2.39963 18.6605 2.49644 18.7383 2.60938C18.7966 2.69407 18.8421 2.78705 18.873 2.88477L18.8994 2.98438V2.9873C18.9136 3.05643 18.9211 3.12674 18.9209 3.19727V11.8643C18.9198 13.5081 18.5252 15.1285 17.7695 16.5908C17.0138 18.0532 15.9188 19.3161 14.5752 20.2754H14.5742L10.3174 23.3057L10.3164 23.3047C10.1393 23.4312 9.92735 23.5 9.70996 23.5C9.49248 23.4999 9.28061 23.4314 9.10352 23.3047L4.84668 20.2754H4.8457C3.50215 19.3162 2.40709 18.0532 1.65137 16.5908C0.89569 15.1285 0.50106 13.5081 0.5 11.8643V3.19824C0.499552 3.04344 0.53414 2.89072 0.600586 2.75098C0.667568 2.61013 0.7655 2.48644 0.886719 2.38867C1.00791 2.29095 1.1495 2.22149 1.30078 2.18555C1.45086 2.14994 1.60691 2.1479 1.75781 2.17969H1.75879C3.02197 2.44442 4.32693 2.44904 5.5918 2.19238C6.85684 1.93561 8.05546 1.42303 9.1123 0.6875C9.28778 0.565415 9.49647 0.500089 9.70996 0.5ZM9.70996 2.77832C7.57587 4.07868 5.07578 4.65035 2.58887 4.4082V11.8633C2.5892 13.1759 2.90356 14.4701 3.50684 15.6387C4.10996 16.8069 4.98474 17.8164 6.05859 18.584L9.70996 21.1807L13.3623 18.583C14.4361 17.8156 15.31 16.8057 15.9131 15.6377C16.5164 14.4693 16.8316 13.1758 16.832 11.8633V4.4082C14.3449 4.65017 11.8443 4.07874 9.70996 2.77832Z" fill="white" stroke="white"/>
</svg>
