<svg width="24" height="24" viewBox="0 0 24 24" fill="none" xmlns="http://www.w3.org/2000/svg">
<path d="M12 0.25C12.5694 0.25 13.0659 0.463668 13.5 0.751953C13.9311 1.03824 14.3172 1.40979 14.6611 1.73926L14.9795 2.04004C15.0844 2.1372 15.1881 2.2301 15.291 2.31543C15.4976 2.48668 15.6859 2.61593 15.8555 2.68652C16.0136 2.751 16.2207 2.78948 16.4727 2.81152C16.7232 2.83343 17.0009 2.83804 17.2998 2.84277C17.7839 2.85003 18.3305 2.85757 18.8506 2.96191C19.3745 3.0671 19.8906 3.27346 20.3086 3.69141C20.7266 4.10937 20.9329 4.6247 21.0381 5.14844C21.1424 5.66796 21.15 6.21413 21.1572 6.7002C21.162 6.99907 21.1666 7.27811 21.1885 7.5293C21.2105 7.78201 21.2487 7.98785 21.3125 8.14258C21.3829 8.31259 21.5127 8.50172 21.6846 8.70898C21.8552 8.91482 22.0555 9.12465 22.2607 9.33887L22.5137 9.60449C22.7705 9.87845 23.0333 10.1766 23.248 10.5C23.5363 10.9341 23.75 11.4306 23.75 12C23.75 12.5694 23.5363 13.0659 23.248 13.5C23.0333 13.8234 22.7705 14.1216 22.5137 14.3955L22.2607 14.6611C22.0555 14.8754 21.8552 15.0852 21.6846 15.291C21.5135 15.4974 21.3831 15.6851 21.3125 15.8545L21.3135 15.8555C21.249 16.0136 21.2105 16.2207 21.1885 16.4727C21.1666 16.7232 21.162 17.0009 21.1572 17.2998C21.15 17.7859 21.1424 18.332 21.0381 18.8516C20.9329 19.3753 20.7266 19.8906 20.3086 20.3086C19.8906 20.7266 19.3753 20.9329 18.8516 21.0381C18.332 21.1424 17.7859 21.15 17.2998 21.1572C17.0009 21.162 16.7219 21.1666 16.4707 21.1885C16.218 21.2105 16.0121 21.2487 15.8574 21.3125C15.6874 21.3829 15.4983 21.5127 15.291 21.6846C15.1881 21.7699 15.0844 21.8628 14.9795 21.96L14.6611 22.2607C14.3172 22.5902 13.9311 22.9618 13.5 23.248C13.0659 23.5363 12.5694 23.75 12 23.75C11.4306 23.75 10.9341 23.5363 10.5 23.248C10.1766 23.0333 9.87845 22.7705 9.60449 22.5137L9.33887 22.2607C9.12465 22.0555 8.91482 21.8552 8.70898 21.6846C8.50242 21.5133 8.31409 21.3841 8.14453 21.3135L8.0166 21.2695C7.88004 21.2305 7.71635 21.205 7.52734 21.1885C7.27682 21.1666 6.99908 21.162 6.7002 21.1572C6.21614 21.15 5.66946 21.1424 5.14941 21.0381C4.62548 20.9329 4.10935 20.7265 3.69141 20.3086C3.27345 19.8906 3.06711 19.3753 2.96191 18.8516C2.85759 18.332 2.85003 17.7859 2.84277 17.2998C2.83804 17.0009 2.83343 16.7219 2.81152 16.4707C2.78947 16.218 2.75134 16.0121 2.6875 15.8574C2.61706 15.6874 2.48727 15.4983 2.31543 15.291C2.2301 15.1881 2.1372 15.0844 2.04004 14.9795L1.73926 14.6611C1.40979 14.3172 1.03824 13.9311 0.751953 13.5C0.463668 13.0659 0.25 12.5694 0.25 12C0.25 11.4306 0.463668 10.9341 0.751953 10.5C1.03824 10.0689 1.40979 9.68284 1.73926 9.33887L2.04004 9.02051C2.1372 8.91563 2.2301 8.81191 2.31543 8.70898C2.48727 8.50172 2.61706 8.31259 2.6875 8.14258C2.75158 7.98461 2.78955 7.77846 2.81152 7.52734C2.83343 7.27682 2.83804 6.99908 2.84277 6.7002C2.85003 6.21614 2.85757 5.66946 2.96191 5.14941C3.06709 4.62548 3.27346 4.10935 3.69141 3.69141C4.10937 3.27345 4.6247 3.06711 5.14844 2.96191C5.66796 2.85759 6.21413 2.85003 6.7002 2.84277C6.99907 2.83804 7.27811 2.83343 7.5293 2.81152C7.78201 2.78947 7.98785 2.75134 8.14258 2.6875C8.31259 2.61706 8.50172 2.48727 8.70898 2.31543C8.91482 2.14477 9.12465 1.94453 9.33887 1.73926L9.60449 1.48633C9.87845 1.22946 10.1766 0.966721 10.5 0.751953C10.9341 0.463668 11.4306 0.25 12 0.25ZM12 2.00488C11.8323 2.00488 11.62 2.09938 11.3564 2.29395C11.0988 2.48419 10.8321 2.73912 10.5557 3.00391C10.0512 3.48581 9.49335 4.02701 8.81445 4.30762C8.16203 4.57805 7.4026 4.58738 6.72852 4.59766C6.33541 4.60347 5.95745 4.60889 5.63086 4.6582C5.29916 4.70834 5.06838 4.7976 4.93457 4.93164C4.80044 5.06613 4.71141 5.29725 4.66113 5.62891C4.61164 5.95546 4.60542 6.33346 4.59961 6.72656C4.59062 7.31635 4.58321 7.9718 4.40039 8.56348L4.31055 8.81348C4.02797 9.49167 3.4859 10.0512 3.00488 10.5518C2.73911 10.8297 2.48445 11.0975 2.29395 11.3555C2.09909 11.6194 2.00488 11.8324 2.00488 12C2.00488 12.1677 2.09853 12.3806 2.29297 12.6445C2.4829 12.9024 2.73726 13.1688 3.00098 13.4463C3.48275 13.9507 4.02596 14.5079 4.30664 15.1865L4.39648 15.4365C4.57928 16.0282 4.58574 16.6837 4.59473 17.2734C4.60054 17.6667 4.60687 18.0454 4.65625 18.3721C4.70642 18.7037 4.7956 18.9346 4.92969 19.0684C5.06422 19.2023 5.29555 19.2906 5.62695 19.3408C5.95348 19.3903 6.33155 19.3965 6.72461 19.4023C7.39859 19.4126 8.15824 19.4211 8.81055 19.6914H8.81152C9.48947 19.9739 10.0494 20.5152 10.5498 20.9961C10.8278 21.2619 11.0955 21.5175 11.3535 21.708C11.6175 21.9029 11.8304 21.9971 11.998 21.9971C12.1653 21.997 12.3775 21.9024 12.6416 21.707C12.8997 21.516 13.1665 21.2607 13.4443 20.9961C13.9487 20.5143 14.5059 19.9721 15.1846 19.6914C15.837 19.4209 16.5973 19.4126 17.2715 19.4023C17.6646 19.3965 18.0425 19.3911 18.3691 19.3418C18.7008 19.2917 18.9316 19.2024 19.0654 19.0684C19.1996 18.9339 19.2886 18.7028 19.3389 18.3711C19.3884 18.0445 19.3946 17.6665 19.4004 17.2734C19.4107 16.5993 19.4189 15.839 19.6895 15.1865L19.8066 14.9375C20.1061 14.3691 20.5732 13.8853 20.9941 13.4473C21.2603 13.1689 21.5169 12.9023 21.708 12.6445C21.9033 12.3811 21.9971 12.1691 21.9971 12.002C21.997 11.8347 21.9024 11.6225 21.707 11.3584C21.5159 11.1002 21.2608 10.8326 20.9961 10.5547C20.5144 10.0504 19.972 9.49392 19.6914 8.81543L19.6016 8.56543C19.4188 7.97375 19.4113 7.31829 19.4023 6.72852C19.3965 6.33541 19.3911 5.95745 19.3418 5.63086C19.2917 5.29917 19.2024 5.06838 19.0684 4.93457C18.9339 4.80044 18.7028 4.71141 18.3711 4.66113C18.0445 4.61164 17.6665 4.60542 17.2734 4.59961C16.6836 4.59062 16.0282 4.58321 15.4365 4.40039L15.1865 4.31055C14.5082 4.02791 13.9479 3.48597 13.4473 3.00488C13.1695 2.73929 12.9024 2.48433 12.6445 2.29395C12.3806 2.09909 12.1676 2.00488 12 2.00488ZM16.1816 8.61426C16.4141 8.61426 16.6373 8.70681 16.8018 8.87109L16.8604 8.93555C16.9879 9.09156 17.0586 9.2879 17.0586 9.49121C17.0585 9.72358 16.966 9.94691 16.8018 10.1113L10.9473 15.9658C10.7828 16.1301 10.5596 16.2227 10.3271 16.2227C10.0947 16.2226 9.87149 16.1301 9.70703 15.9658L7.19824 13.4561L7.19141 13.4502V13.4492C7.03698 13.2831 6.95313 13.0637 6.95703 12.8369C6.96104 12.6096 7.05314 12.3922 7.21387 12.2314C7.37457 12.0709 7.59123 11.9786 7.81836 11.9746C8.04552 11.9706 8.26537 12.0551 8.43164 12.21L8.43848 12.2158L10.3271 14.1045L15.5615 8.87109C15.726 8.70685 15.9492 8.6143 16.1816 8.61426Z" fill="black" stroke="black" stroke-width="0.5"/>
</svg>
