<svg width="25" height="25" viewBox="0 0 25 25" fill="none" xmlns="http://www.w3.org/2000/svg">
<path d="M12.5 0.75C13.0694 0.75 13.5659 0.963668 14 1.25195C14.4311 1.53824 14.8172 1.90979 15.1611 2.23926L15.4795 2.54004C15.5844 2.6372 15.6881 2.7301 15.791 2.81543C15.9976 2.98668 16.1859 3.11593 16.3555 3.18652C16.5136 3.251 16.7207 3.28948 16.9727 3.31152C17.2232 3.33343 17.5009 3.33804 17.7998 3.34277C18.2839 3.35003 18.8305 3.35757 19.3506 3.46191C19.8745 3.5671 20.3906 3.77346 20.8086 4.19141C21.2266 4.60937 21.4329 5.1247 21.5381 5.64844C21.6424 6.16796 21.65 6.71413 21.6572 7.2002C21.662 7.49907 21.6666 7.77811 21.6885 8.0293C21.7105 8.28201 21.7487 8.48785 21.8125 8.64258C21.8829 8.81259 22.0127 9.00172 22.1846 9.20898C22.3552 9.41482 22.5555 9.62465 22.7607 9.83887L23.0137 10.1045C23.2705 10.3784 23.5333 10.6766 23.748 11C24.0363 11.4341 24.25 11.9306 24.25 12.5C24.25 13.0694 24.0363 13.5659 23.748 14C23.5333 14.3234 23.2705 14.6216 23.0137 14.8955L22.7607 15.1611C22.5555 15.3754 22.3552 15.5852 22.1846 15.791C22.0135 15.9974 21.8831 16.1851 21.8125 16.3545L21.8135 16.3555C21.749 16.5136 21.7105 16.7207 21.6885 16.9727C21.6666 17.2232 21.662 17.5009 21.6572 17.7998C21.65 18.2859 21.6424 18.832 21.5381 19.3516C21.4329 19.8753 21.2266 20.3906 20.8086 20.8086C20.3906 21.2266 19.8753 21.4329 19.3516 21.5381C18.832 21.6424 18.2859 21.65 17.7998 21.6572C17.5009 21.662 17.2219 21.6666 16.9707 21.6885C16.718 21.7105 16.5121 21.7487 16.3574 21.8125C16.1874 21.8829 15.9983 22.0127 15.791 22.1846C15.6881 22.2699 15.5844 22.3628 15.4795 22.46L15.1611 22.7607C14.8172 23.0902 14.4311 23.4618 14 23.748C13.5659 24.0363 13.0694 24.25 12.5 24.25C11.9306 24.25 11.4341 24.0363 11 23.748C10.6766 23.5333 10.3784 23.2705 10.1045 23.0137L9.83887 22.7607C9.62465 22.5555 9.41482 22.3552 9.20898 22.1846C9.00242 22.0133 8.81409 21.8841 8.64453 21.8135L8.5166 21.7695C8.38004 21.7305 8.21635 21.705 8.02734 21.6885C7.77682 21.6666 7.49908 21.662 7.2002 21.6572C6.71614 21.65 6.16946 21.6424 5.64941 21.5381C5.12548 21.4329 4.60935 21.2265 4.19141 20.8086C3.77345 20.3906 3.56711 19.8753 3.46191 19.3516C3.35759 18.832 3.35003 18.2859 3.34277 17.7998C3.33804 17.5009 3.33343 17.2219 3.31152 16.9707C3.28947 16.718 3.25134 16.5121 3.1875 16.3574C3.11706 16.1874 2.98727 15.9983 2.81543 15.791C2.7301 15.6881 2.6372 15.5844 2.54004 15.4795L2.23926 15.1611C1.90979 14.8172 1.53824 14.4311 1.25195 14C0.963668 13.5659 0.75 13.0694 0.75 12.5C0.75 11.9306 0.963668 11.4341 1.25195 11C1.53824 10.5689 1.90979 10.1828 2.23926 9.83887L2.54004 9.52051C2.6372 9.41563 2.7301 9.31191 2.81543 9.20898C2.98727 9.00172 3.11706 8.81259 3.1875 8.64258C3.25158 8.48461 3.28955 8.27846 3.31152 8.02734C3.33343 7.77682 3.33804 7.49908 3.34277 7.2002C3.35003 6.71614 3.35757 6.16946 3.46191 5.64941C3.56709 5.12548 3.77346 4.60935 4.19141 4.19141C4.60937 3.77345 5.1247 3.56711 5.64844 3.46191C6.16796 3.35759 6.71413 3.35003 7.2002 3.34277C7.49907 3.33804 7.77811 3.33343 8.0293 3.31152C8.28201 3.28947 8.48785 3.25134 8.64258 3.1875C8.81259 3.11706 9.00172 2.98727 9.20898 2.81543C9.41482 2.64477 9.62465 2.44453 9.83887 2.23926L10.1045 1.98633C10.3784 1.72946 10.6766 1.46672 11 1.25195C11.4341 0.963668 11.9306 0.75 12.5 0.75ZM12.5 2.50488C12.3323 2.50488 12.12 2.59938 11.8564 2.79395C11.5988 2.98419 11.3321 3.23912 11.0557 3.50391C10.5512 3.98581 9.99335 4.52701 9.31445 4.80762C8.66203 5.07805 7.9026 5.08738 7.22852 5.09766C6.83541 5.10347 6.45745 5.10889 6.13086 5.1582C5.79916 5.20834 5.56838 5.2976 5.43457 5.43164C5.30044 5.56613 5.21141 5.79725 5.16113 6.12891C5.11164 6.45546 5.10542 6.83346 5.09961 7.22656C5.09062 7.81635 5.08321 8.4718 4.90039 9.06348L4.81055 9.31348C4.52797 9.99167 3.9859 10.5512 3.50488 11.0518C3.23911 11.3297 2.98445 11.5975 2.79395 11.8555C2.59909 12.1194 2.50488 12.3324 2.50488 12.5C2.50488 12.6677 2.59853 12.8806 2.79297 13.1445C2.9829 13.4024 3.23726 13.6688 3.50098 13.9463C3.98275 14.4507 4.52596 15.0079 4.80664 15.6865L4.89648 15.9365C5.07928 16.5282 5.08574 17.1837 5.09473 17.7734C5.10054 18.1667 5.10687 18.5454 5.15625 18.8721C5.20642 19.2037 5.2956 19.4346 5.42969 19.5684C5.56422 19.7023 5.79555 19.7906 6.12695 19.8408C6.45348 19.8903 6.83155 19.8965 7.22461 19.9023C7.89859 19.9126 8.65824 19.9211 9.31055 20.1914H9.31152C9.98947 20.4739 10.5494 21.0152 11.0498 21.4961C11.3278 21.7619 11.5955 22.0175 11.8535 22.208C12.1175 22.4029 12.3304 22.4971 12.498 22.4971C12.6653 22.497 12.8775 22.4024 13.1416 22.207C13.3997 22.016 13.6665 21.7607 13.9443 21.4961C14.4487 21.0143 15.0059 20.4721 15.6846 20.1914C16.337 19.9209 17.0973 19.9126 17.7715 19.9023C18.1646 19.8965 18.5425 19.8911 18.8691 19.8418C19.2008 19.7917 19.4316 19.7024 19.5654 19.5684C19.6996 19.4339 19.7886 19.2028 19.8389 18.8711C19.8884 18.5445 19.8946 18.1665 19.9004 17.7734C19.9107 17.0993 19.9189 16.339 20.1895 15.6865L20.3066 15.4375C20.6061 14.8691 21.0732 14.3853 21.4941 13.9473C21.7603 13.6689 22.0169 13.4023 22.208 13.1445C22.4033 12.8811 22.4971 12.6691 22.4971 12.502C22.497 12.3347 22.4024 12.1225 22.207 11.8584C22.0159 11.6002 21.7608 11.3326 21.4961 11.0547C21.0144 10.5504 20.472 9.99392 20.1914 9.31543L20.1016 9.06543C19.9188 8.47375 19.9113 7.81829 19.9023 7.22852C19.8965 6.83541 19.8911 6.45745 19.8418 6.13086C19.7917 5.79917 19.7024 5.56838 19.5684 5.43457C19.4339 5.30044 19.2028 5.21141 18.8711 5.16113C18.5445 5.11164 18.1665 5.10542 17.7734 5.09961C17.1836 5.09062 16.5282 5.08321 15.9365 4.90039L15.6865 4.81055C15.0082 4.52791 14.4479 3.98597 13.9473 3.50488C13.6695 3.23929 13.4024 2.98433 13.1445 2.79395C12.8806 2.59909 12.6676 2.50488 12.5 2.50488ZM16.6816 9.11426C16.9141 9.11426 17.1373 9.20681 17.3018 9.37109L17.3604 9.43555C17.4879 9.59156 17.5586 9.7879 17.5586 9.99121C17.5585 10.2236 17.466 10.4469 17.3018 10.6113L11.4473 16.4658C11.2828 16.6301 11.0596 16.7227 10.8271 16.7227C10.5947 16.7226 10.3715 16.6301 10.207 16.4658L7.69824 13.9561L7.69141 13.9502V13.9492C7.53698 13.7831 7.45313 13.5637 7.45703 13.3369C7.46104 13.1096 7.55314 12.8922 7.71387 12.7314C7.87457 12.5709 8.09123 12.4786 8.31836 12.4746C8.54552 12.4706 8.76537 12.5551 8.93164 12.71L8.93848 12.7158L10.8271 14.6045L16.0615 9.37109C16.226 9.20685 16.4492 9.1143 16.6816 9.11426Z" fill="white" stroke="white" stroke-width="0.5"/>
</svg>
