<svg width="40" height="40" viewBox="0 0 40 40" fill="none" xmlns="http://www.w3.org/2000/svg">
<g filter="url(#filter0_d_279_370)">
<path d="M24.272 17.6005C22.0925 16.3418 20.75 14.0162 20.75 11.4994V8.5C20.75 8.30109 20.671 8.11032 20.5303 7.96967C20.3897 7.82902 20.1989 7.75 20 7.75C19.8011 7.75 19.6103 7.82902 19.4697 7.96967C19.329 8.11032 19.25 8.30109 19.25 8.5V16C19.25 16.1316 19.2847 16.261 19.3505 16.375C19.4163 16.489 19.511 16.5837 19.625 16.6495L23.522 18.8995C23.607 18.9493 23.7011 18.9817 23.7988 18.9949C23.8964 19.008 23.9957 19.0017 24.0909 18.9761C24.1861 18.9506 24.2752 18.9064 24.3532 18.8461C24.4311 18.7858 24.4963 18.7107 24.545 18.625C24.6446 18.4529 24.6718 18.2483 24.6206 18.0562C24.5694 17.8641 24.444 17.7002 24.272 17.6005ZM20 1C11.7155 1 5 7.7155 5 16C5 24.2845 11.7155 31 20 31C28.28 30.991 34.991 24.28 35 16C35 7.7155 28.2845 1 20 1ZM20 29.5C18.2272 29.5 16.4717 29.1508 14.8338 28.4724C13.1959 27.7939 11.7076 26.7995 10.4541 25.5459C9.20047 24.2923 8.20606 22.8041 7.52763 21.1662C6.84919 19.5283 6.5 17.7728 6.5 16C6.5 14.2272 6.84919 12.4717 7.52763 10.8338C8.20606 9.19588 9.20047 7.70765 10.4541 6.45406C11.7076 5.20047 13.1959 4.20606 14.8338 3.52763C16.4717 2.84919 18.2272 2.5 20 2.5C23.5792 2.50397 27.0107 3.92756 29.5416 6.45844C32.0724 8.98932 33.496 12.4208 33.5 16C33.5 19.5804 32.0777 23.0142 29.5459 25.5459C27.0142 28.0777 23.5804 29.5 20 29.5Z" fill="white"/>
<path d="M20 0.5C28.5606 0.5 35.5 7.43936 35.5 16V16.001C35.4905 24.5563 28.5563 31.4905 20.001 31.5H20C11.4394 31.5 4.5 24.5606 4.5 16C4.5 7.43936 11.4394 0.5 20 0.5ZM19.999 3C18.2923 3.00013 16.6022 3.33616 15.0254 3.98926C13.4482 4.64257 12.0148 5.60046 10.8076 6.80762C9.60046 8.01478 8.64257 9.44816 7.98926 11.0254C7.33604 12.6025 7 14.2929 7 16C7 17.7071 7.33604 19.3975 7.98926 20.9746C8.64257 22.5518 9.60046 23.9852 10.8076 25.1924C12.0148 26.3995 13.4482 27.3574 15.0254 28.0107C16.6025 28.664 18.2929 29 20 29C23.4478 29 26.7544 27.6304 29.1924 25.1924C31.6301 22.7546 32.9997 19.4484 33 16.001L32.9961 15.6777C32.9099 12.348 31.5495 9.17258 29.1885 6.81152C26.7512 4.37428 23.4458 3.00382 19.999 3ZM20 7.25C20.3315 7.25 20.6494 7.38179 20.8838 7.61621C21.1182 7.85063 21.25 8.16848 21.25 8.5V11.499C21.25 13.8372 22.4977 15.9986 24.5225 17.168L24.627 17.2354C24.86 17.4033 25.0289 17.6477 25.1035 17.9277C25.1884 18.2465 25.1428 18.5851 24.9785 18.8711L24.9795 18.8721C24.8982 19.0151 24.7893 19.1405 24.6592 19.2412C24.5289 19.3419 24.3797 19.4163 24.2207 19.459C24.0617 19.5016 23.8956 19.5122 23.7324 19.4902C23.5692 19.4683 23.4116 19.4143 23.2695 19.3311V19.3301L19.375 17.082C19.1851 16.9723 19.0267 16.8149 18.917 16.625C18.8074 16.435 18.75 16.2193 18.75 16V8.5C18.75 8.16848 18.8818 7.85063 19.1162 7.61621C19.3506 7.38179 19.6685 7.25 20 7.25Z" stroke="white"/>
</g>
<defs>
<filter id="filter0_d_279_370" x="0" y="0" width="40" height="40" filterUnits="userSpaceOnUse" color-interpolation-filters="sRGB">
<feFlood flood-opacity="0" result="BackgroundImageFix"/>
<feColorMatrix in="SourceAlpha" type="matrix" values="0 0 0 0 0 0 0 0 0 0 0 0 0 0 0 0 0 0 127 0" result="hardAlpha"/>
<feOffset dy="4"/>
<feGaussianBlur stdDeviation="2"/>
<feComposite in2="hardAlpha" operator="out"/>
<feColorMatrix type="matrix" values="0 0 0 0 0 0 0 0 0 0 0 0 0 0 0 0 0 0 0.25 0"/>
<feBlend mode="normal" in2="BackgroundImageFix" result="effect1_dropShadow_279_370"/>
<feBlend mode="normal" in="SourceGraphic" in2="effect1_dropShadow_279_370" result="shape"/>
</filter>
</defs>
</svg>
